<mxfile host="app.diagrams.net" agent="Mozilla/5.0 (Windows NT 10.0; Win64; x64) AppleWebKit/537.36 (KHTML, like Gecko) Chrome/136.0.0.0 Safari/537.36" version="26.2.14">
  <diagram id="6a731a19-8d31-9384-78a2-239565b7b9f0" name="Page-1">
    <mxGraphModel dx="1209" dy="1773" grid="1" gridSize="10" guides="1" tooltips="1" connect="1" arrows="1" fold="1" page="1" pageScale="1" pageWidth="827" pageHeight="1169" background="none" math="0" shadow="0">
      <root>
        <mxCell id="0" />
        <mxCell id="1" parent="0" />
        <mxCell id="1745" value="" style="edgeStyle=none;rounded=0;jumpStyle=none;html=1;shadow=0;labelBackgroundColor=none;startArrow=none;startFill=0;endArrow=classic;endFill=1;jettySize=auto;orthogonalLoop=1;strokeColor=#2F5B7C;strokeWidth=3;fontFamily=Helvetica;fontSize=16;fontColor=#23445D;spacing=5;" parent="1" source="1749" target="1764" edge="1">
          <mxGeometry relative="1" as="geometry" />
        </mxCell>
        <mxCell id="1746" value="" style="edgeStyle=none;rounded=0;jumpStyle=none;html=1;shadow=0;labelBackgroundColor=none;startArrow=none;startFill=0;endArrow=classic;endFill=1;jettySize=auto;orthogonalLoop=1;strokeColor=#2F5B7C;strokeWidth=3;fontFamily=Helvetica;fontSize=16;fontColor=#23445D;spacing=5;" parent="1" source="1749" target="1771" edge="1">
          <mxGeometry relative="1" as="geometry" />
        </mxCell>
        <mxCell id="1747" value="" style="edgeStyle=none;rounded=0;jumpStyle=none;html=1;shadow=0;labelBackgroundColor=none;startArrow=none;startFill=0;endArrow=classic;endFill=1;jettySize=auto;orthogonalLoop=1;strokeColor=#2F5B7C;strokeWidth=3;fontFamily=Helvetica;fontSize=16;fontColor=#23445D;spacing=5;" parent="1" source="1749" target="1760" edge="1">
          <mxGeometry relative="1" as="geometry" />
        </mxCell>
        <mxCell id="1748" value="" style="edgeStyle=none;rounded=0;jumpStyle=none;html=1;shadow=0;labelBackgroundColor=none;startArrow=none;startFill=0;endArrow=classic;endFill=1;jettySize=auto;orthogonalLoop=1;strokeColor=#2F5B7C;strokeWidth=3;fontFamily=Helvetica;fontSize=16;fontColor=#23445D;spacing=5;" parent="1" source="1749" target="1753" edge="1">
          <mxGeometry relative="1" as="geometry" />
        </mxCell>
        <mxCell id="1749" value="Direccion" style="rounded=1;whiteSpace=wrap;html=1;shadow=0;labelBackgroundColor=none;strokeColor=none;strokeWidth=3;fillColor=light-dark(#2F5B7C,#667F95);fontFamily=Helvetica;fontSize=16;fontColor=#FFFFFF;align=center;fontStyle=1;spacing=5;arcSize=7;perimeterSpacing=2;" parent="1" vertex="1">
          <mxGeometry x="320" y="-654" width="160" height="70" as="geometry" />
        </mxCell>
        <mxCell id="1753" value="CTO (Tecnología)" style="rounded=1;whiteSpace=wrap;html=1;shadow=0;labelBackgroundColor=none;strokeColor=none;strokeWidth=3;fillColor=#e85642;fontFamily=Helvetica;fontSize=14;fontColor=#FFFFFF;align=center;spacing=5;fontStyle=1;arcSize=7;perimeterSpacing=2;" parent="1" vertex="1">
          <mxGeometry x="30" y="-477" width="160" height="60" as="geometry" />
        </mxCell>
        <mxCell id="1760" value="CMO (Marketing)" style="rounded=1;whiteSpace=wrap;html=1;shadow=0;labelBackgroundColor=none;strokeColor=none;strokeWidth=3;fillColor=#1699d3;fontFamily=Helvetica;fontSize=14;fontColor=#FFFFFF;align=center;spacing=5;fontStyle=1;arcSize=7;perimeterSpacing=2;" parent="1" vertex="1">
          <mxGeometry x="30" y="-317" width="160" height="60" as="geometry" />
        </mxCell>
        <mxCell id="1764" value="Recursos Humanos" style="rounded=1;whiteSpace=wrap;html=1;shadow=0;labelBackgroundColor=none;strokeColor=none;strokeWidth=3;fillColor=#F08705;fontFamily=Helvetica;fontSize=14;fontColor=#FFFFFF;align=center;spacing=5;fontStyle=1;arcSize=7;perimeterSpacing=2;" parent="1" vertex="1">
          <mxGeometry x="330" y="-157" width="160" height="60" as="geometry" />
        </mxCell>
        <mxCell id="1771" value="CFO (Finanzas)" style="rounded=1;whiteSpace=wrap;html=1;shadow=0;labelBackgroundColor=none;strokeColor=none;strokeWidth=3;fillColor=#12aab5;fontFamily=Helvetica;fontSize=14;fontColor=#FFFFFF;align=center;spacing=5;fontStyle=1;arcSize=7;perimeterSpacing=2;" parent="1" vertex="1">
          <mxGeometry x="90" y="-167" width="160" height="60" as="geometry" />
        </mxCell>
        <mxCell id="PSOIu7-MygtbMvIVnS7S-1779" value="CEO" style="rounded=1;whiteSpace=wrap;html=1;shadow=0;labelBackgroundColor=none;strokeColor=none;strokeWidth=3;fillColor=#2F5B7C;fontFamily=Helvetica;fontSize=16;fontColor=#FFFFFF;align=center;fontStyle=1;spacing=5;arcSize=7;perimeterSpacing=2;" vertex="1" parent="1">
          <mxGeometry x="320" y="-860" width="160" height="70" as="geometry" />
        </mxCell>
        <mxCell id="PSOIu7-MygtbMvIVnS7S-1781" value="" style="edgeStyle=none;rounded=0;jumpStyle=none;html=1;shadow=0;labelBackgroundColor=none;startArrow=none;startFill=0;endArrow=classic;endFill=1;jettySize=auto;orthogonalLoop=1;strokeColor=#2F5B7C;strokeWidth=3;fontFamily=Helvetica;fontSize=16;fontColor=#23445D;spacing=5;exitX=0.5;exitY=1;exitDx=0;exitDy=0;entryX=0.5;entryY=0;entryDx=0;entryDy=0;" edge="1" parent="1" source="PSOIu7-MygtbMvIVnS7S-1779" target="1749">
          <mxGeometry relative="1" as="geometry">
            <mxPoint x="380" y="-117" as="sourcePoint" />
            <mxPoint x="616" y="-108" as="targetPoint" />
          </mxGeometry>
        </mxCell>
        <mxCell id="PSOIu7-MygtbMvIVnS7S-1791" value="Consultoría" style="rounded=1;whiteSpace=wrap;html=1;shadow=0;labelBackgroundColor=none;strokeColor=#005700;strokeWidth=3;fillColor=light-dark(#008a00, #8a7e00);fontFamily=Helvetica;fontSize=14;fontColor=#ffffff;align=center;spacing=5;fontStyle=1;arcSize=7;perimeterSpacing=2;" vertex="1" parent="1">
          <mxGeometry x="570" y="-157" width="160" height="60" as="geometry" />
        </mxCell>
        <mxCell id="PSOIu7-MygtbMvIVnS7S-1792" value="" style="edgeStyle=none;rounded=0;jumpStyle=none;html=1;shadow=0;labelBackgroundColor=none;startArrow=none;startFill=0;endArrow=classic;endFill=1;jettySize=auto;orthogonalLoop=1;strokeColor=#2F5B7C;strokeWidth=3;fontFamily=Helvetica;fontSize=16;fontColor=#23445D;spacing=5;" edge="1" parent="1" source="1749" target="PSOIu7-MygtbMvIVnS7S-1791">
          <mxGeometry relative="1" as="geometry">
            <mxPoint x="585" y="10" as="sourcePoint" />
            <mxPoint x="893" y="456" as="targetPoint" />
            <Array as="points" />
          </mxGeometry>
        </mxCell>
        <mxCell id="PSOIu7-MygtbMvIVnS7S-1793" value="Atención al Cliente" style="rounded=1;whiteSpace=wrap;html=1;shadow=0;labelBackgroundColor=none;strokeColor=#001DBC;strokeWidth=3;fillColor=light-dark(#0050ef, #2800f0);fontFamily=Helvetica;fontSize=14;fontColor=#ffffff;align=center;spacing=5;fontStyle=1;arcSize=7;perimeterSpacing=2;" vertex="1" parent="1">
          <mxGeometry x="620" y="-317" width="160" height="60" as="geometry" />
        </mxCell>
        <mxCell id="PSOIu7-MygtbMvIVnS7S-1794" value="" style="edgeStyle=none;rounded=0;jumpStyle=none;html=1;shadow=0;labelBackgroundColor=none;startArrow=none;startFill=0;endArrow=classic;endFill=1;jettySize=auto;orthogonalLoop=1;strokeColor=#2F5B7C;strokeWidth=3;fontFamily=Helvetica;fontSize=16;fontColor=#23445D;spacing=5;" edge="1" parent="1" source="1749" target="PSOIu7-MygtbMvIVnS7S-1793">
          <mxGeometry relative="1" as="geometry">
            <mxPoint x="552" y="-108" as="sourcePoint" />
            <mxPoint x="688" y="-111" as="targetPoint" />
            <Array as="points" />
          </mxGeometry>
        </mxCell>
        <mxCell id="PSOIu7-MygtbMvIVnS7S-1795" value="Comercial" style="rounded=1;whiteSpace=wrap;html=1;shadow=0;labelBackgroundColor=none;strokeColor=#001DBC;strokeWidth=3;fillColor=light-dark(#0050ef, #2800f0);fontFamily=Helvetica;fontSize=14;fontColor=#ffffff;align=center;spacing=5;fontStyle=1;arcSize=7;perimeterSpacing=2;" vertex="1" parent="1">
          <mxGeometry x="620" y="-477" width="160" height="60" as="geometry" />
        </mxCell>
        <mxCell id="PSOIu7-MygtbMvIVnS7S-1796" value="" style="edgeStyle=none;rounded=0;jumpStyle=none;html=1;shadow=0;labelBackgroundColor=none;startArrow=none;startFill=0;endArrow=classic;endFill=1;jettySize=auto;orthogonalLoop=1;strokeColor=#2F5B7C;strokeWidth=3;fontFamily=Helvetica;fontSize=16;fontColor=#23445D;spacing=5;" edge="1" parent="1" source="1749" target="PSOIu7-MygtbMvIVnS7S-1795">
          <mxGeometry relative="1" as="geometry">
            <mxPoint x="534" y="-59" as="sourcePoint" />
            <mxPoint x="734" y="-185" as="targetPoint" />
            <Array as="points" />
          </mxGeometry>
        </mxCell>
        <mxCell id="PSOIu7-MygtbMvIVnS7S-1797" style="edgeStyle=orthogonalEdgeStyle;rounded=0;orthogonalLoop=1;jettySize=auto;html=1;exitX=0.5;exitY=1;exitDx=0;exitDy=0;" edge="1" parent="1">
          <mxGeometry relative="1" as="geometry">
            <mxPoint x="675" y="195.00000000000023" as="sourcePoint" />
            <mxPoint x="675" y="195.00000000000023" as="targetPoint" />
          </mxGeometry>
        </mxCell>
        <mxCell id="PSOIu7-MygtbMvIVnS7S-1799" value="&lt;font style=&quot;font-size: 36px;&quot;&gt;Árbol de Dependencia&lt;/font&gt;&lt;div&gt;&lt;font style=&quot;font-size: 36px;&quot;&gt;&amp;nbsp; TechSys Solutions S.L.&lt;/font&gt;&lt;/div&gt;" style="text;whiteSpace=wrap;html=1;align=center;" vertex="1" parent="1">
          <mxGeometry x="30" y="-1060" width="750" height="40" as="geometry" />
        </mxCell>
        <mxCell id="PSOIu7-MygtbMvIVnS7S-1800" value="&lt;font style=&quot;font-size: 36px;&quot;&gt;Departamento de Tecnología (CTO)&lt;/font&gt;" style="text;whiteSpace=wrap;html=1;align=center;" vertex="1" parent="1">
          <mxGeometry x="50" y="110" width="700" height="40" as="geometry" />
        </mxCell>
        <mxCell id="PSOIu7-MygtbMvIVnS7S-1801" value="&lt;font style=&quot;font-size: 18px;&quot;&gt;CTO (Tecnología)&lt;/font&gt;" style="rounded=1;whiteSpace=wrap;html=1;shadow=0;labelBackgroundColor=none;strokeColor=none;strokeWidth=3;fillColor=#e85642;fontFamily=Helvetica;fontSize=14;fontColor=#FFFFFF;align=center;spacing=5;fontStyle=1;arcSize=7;perimeterSpacing=2;" vertex="1" parent="1">
          <mxGeometry x="310" y="250" width="160" height="60" as="geometry" />
        </mxCell>
        <mxCell id="PSOIu7-MygtbMvIVnS7S-1802" value="&lt;font style=&quot;font-size: 18px;&quot;&gt;TI&lt;/font&gt;" style="rounded=1;whiteSpace=wrap;html=1;shadow=0;labelBackgroundColor=none;strokeColor=none;strokeWidth=3;fillColor=light-dark(#E85642,#AC5343);fontFamily=Helvetica;fontSize=14;fontColor=#FFFFFF;align=center;spacing=5;fontStyle=1;arcSize=7;perimeterSpacing=2;" vertex="1" parent="1">
          <mxGeometry x="130" y="410" width="160" height="60" as="geometry" />
        </mxCell>
        <mxCell id="PSOIu7-MygtbMvIVnS7S-1804" value="&lt;font style=&quot;font-size: 18px;&quot;&gt;Desarrollo&lt;/font&gt;" style="rounded=1;whiteSpace=wrap;html=1;shadow=0;labelBackgroundColor=none;strokeColor=none;strokeWidth=3;fillColor=light-dark(#E85642,#AC5343);fontFamily=Helvetica;fontSize=14;fontColor=#FFFFFF;align=center;spacing=5;fontStyle=1;arcSize=7;perimeterSpacing=2;" vertex="1" parent="1">
          <mxGeometry x="540" y="410" width="160" height="60" as="geometry" />
        </mxCell>
        <mxCell id="PSOIu7-MygtbMvIVnS7S-1805" value="&lt;font style=&quot;font-size: 11px;&quot;&gt;Infraestructura y Redes&lt;/font&gt;" style="rounded=1;whiteSpace=wrap;html=1;shadow=0;labelBackgroundColor=none;strokeColor=none;strokeWidth=3;fillColor=light-dark(#E85642,#683425);fontFamily=Helvetica;fontSize=14;fontColor=#FFFFFF;align=center;spacing=5;fontStyle=1;arcSize=7;perimeterSpacing=2;" vertex="1" parent="1">
          <mxGeometry x="40" y="600" width="120" height="60" as="geometry" />
        </mxCell>
        <mxCell id="PSOIu7-MygtbMvIVnS7S-1806" value="&lt;font style=&quot;font-size: 11px;&quot;&gt;Seguridad Informática&lt;/font&gt;" style="rounded=1;whiteSpace=wrap;html=1;shadow=0;labelBackgroundColor=none;strokeColor=none;strokeWidth=3;fillColor=light-dark(#E85642,#683425);fontFamily=Helvetica;fontSize=14;fontColor=#FFFFFF;align=center;spacing=5;fontStyle=1;arcSize=7;perimeterSpacing=2;" vertex="1" parent="1">
          <mxGeometry x="200" y="600" width="120" height="60" as="geometry" />
        </mxCell>
        <mxCell id="PSOIu7-MygtbMvIVnS7S-1808" value="&lt;font style=&quot;font-size: 11px;&quot;&gt;Frontend&lt;/font&gt;" style="rounded=1;whiteSpace=wrap;html=1;shadow=0;labelBackgroundColor=none;strokeColor=none;strokeWidth=3;fillColor=light-dark(#E85642,#683425);fontFamily=Helvetica;fontSize=14;fontColor=#FFFFFF;align=center;spacing=5;fontStyle=1;arcSize=7;perimeterSpacing=2;" vertex="1" parent="1">
          <mxGeometry x="550" y="600" width="120" height="60" as="geometry" />
        </mxCell>
        <mxCell id="PSOIu7-MygtbMvIVnS7S-1809" value="&lt;font style=&quot;font-size: 11px;&quot;&gt;Backend&lt;/font&gt;" style="rounded=1;whiteSpace=wrap;html=1;shadow=0;labelBackgroundColor=none;strokeColor=none;strokeWidth=3;fillColor=light-dark(#E85642,#683425);fontFamily=Helvetica;fontSize=14;fontColor=#FFFFFF;align=center;spacing=5;fontStyle=1;arcSize=7;perimeterSpacing=2;" vertex="1" parent="1">
          <mxGeometry x="400" y="600" width="120" height="60" as="geometry" />
        </mxCell>
        <mxCell id="PSOIu7-MygtbMvIVnS7S-1810" value="&lt;font style=&quot;font-size: 11px;&quot;&gt;QA / Testing&lt;/font&gt;" style="rounded=1;whiteSpace=wrap;html=1;shadow=0;labelBackgroundColor=none;strokeColor=none;strokeWidth=3;fillColor=light-dark(#E85642,#683425);fontFamily=Helvetica;fontSize=14;fontColor=#FFFFFF;align=center;spacing=5;fontStyle=1;arcSize=7;perimeterSpacing=2;" vertex="1" parent="1">
          <mxGeometry x="690" y="600" width="121" height="60" as="geometry" />
        </mxCell>
        <mxCell id="PSOIu7-MygtbMvIVnS7S-1815" value="&lt;font style=&quot;font-size: 11px;&quot;&gt;Administración de servidores&lt;/font&gt;" style="rounded=1;whiteSpace=wrap;html=1;shadow=0;labelBackgroundColor=none;strokeColor=none;strokeWidth=3;fillColor=light-dark(#E85642,#29170B);fontFamily=Helvetica;fontSize=14;fontColor=#FFFFFF;align=center;spacing=5;fontStyle=1;arcSize=7;perimeterSpacing=2;" vertex="1" parent="1">
          <mxGeometry x="20" y="740" width="90" height="60" as="geometry" />
        </mxCell>
        <mxCell id="PSOIu7-MygtbMvIVnS7S-1816" value="&lt;font style=&quot;font-size: 11px;&quot;&gt;Redes internas y VPN&lt;/font&gt;" style="rounded=1;whiteSpace=wrap;html=1;shadow=0;labelBackgroundColor=none;strokeColor=none;strokeWidth=3;fillColor=light-dark(#E85642,#29170B);fontFamily=Helvetica;fontSize=14;fontColor=#FFFFFF;align=center;spacing=5;fontStyle=1;arcSize=7;perimeterSpacing=2;" vertex="1" parent="1">
          <mxGeometry x="20" y="820" width="90" height="60" as="geometry" />
        </mxCell>
        <mxCell id="PSOIu7-MygtbMvIVnS7S-1817" value="&lt;font style=&quot;font-size: 11px;&quot;&gt;Gestión de hardware y cableado&lt;/font&gt;" style="rounded=1;whiteSpace=wrap;html=1;shadow=0;labelBackgroundColor=none;strokeColor=none;strokeWidth=3;fillColor=light-dark(#E85642,#29170B);fontFamily=Helvetica;fontSize=14;fontColor=#FFFFFF;align=center;spacing=5;fontStyle=1;arcSize=7;perimeterSpacing=2;" vertex="1" parent="1">
          <mxGeometry x="20" y="910" width="90" height="60" as="geometry" />
        </mxCell>
        <mxCell id="PSOIu7-MygtbMvIVnS7S-1818" value="" style="edgeStyle=none;rounded=0;jumpStyle=none;html=1;shadow=0;labelBackgroundColor=none;startArrow=none;startFill=0;endArrow=classic;endFill=1;jettySize=auto;orthogonalLoop=1;strokeColor=#2F5B7C;strokeWidth=3;fontFamily=Helvetica;fontSize=16;fontColor=#23445D;spacing=5;entryX=0.5;entryY=0;entryDx=0;entryDy=0;exitX=0;exitY=0.75;exitDx=0;exitDy=0;" edge="1" parent="1" source="PSOIu7-MygtbMvIVnS7S-1801" target="PSOIu7-MygtbMvIVnS7S-1802">
          <mxGeometry relative="1" as="geometry">
            <mxPoint x="411" y="28" as="sourcePoint" />
            <mxPoint x="419" y="451" as="targetPoint" />
          </mxGeometry>
        </mxCell>
        <mxCell id="PSOIu7-MygtbMvIVnS7S-1819" value="" style="edgeStyle=none;rounded=0;jumpStyle=none;html=1;shadow=0;labelBackgroundColor=none;startArrow=none;startFill=0;endArrow=classic;endFill=1;jettySize=auto;orthogonalLoop=1;strokeColor=#2F5B7C;strokeWidth=3;fontFamily=Helvetica;fontSize=16;fontColor=#23445D;spacing=5;exitX=1;exitY=0.75;exitDx=0;exitDy=0;entryX=0.5;entryY=0;entryDx=0;entryDy=0;" edge="1" parent="1" source="PSOIu7-MygtbMvIVnS7S-1801" target="PSOIu7-MygtbMvIVnS7S-1804">
          <mxGeometry relative="1" as="geometry">
            <mxPoint x="494" y="432" as="sourcePoint" />
            <mxPoint x="432" y="488" as="targetPoint" />
          </mxGeometry>
        </mxCell>
        <mxCell id="PSOIu7-MygtbMvIVnS7S-1820" value="" style="edgeStyle=none;rounded=0;jumpStyle=none;html=1;shadow=0;labelBackgroundColor=none;startArrow=none;startFill=0;endArrow=classic;endFill=1;jettySize=auto;orthogonalLoop=1;strokeColor=#2F5B7C;strokeWidth=3;fontFamily=Helvetica;fontSize=16;fontColor=#23445D;spacing=5;entryX=0.5;entryY=0;entryDx=0;entryDy=0;exitX=0.5;exitY=1;exitDx=0;exitDy=0;" edge="1" parent="1" source="PSOIu7-MygtbMvIVnS7S-1804">
          <mxGeometry relative="1" as="geometry">
            <mxPoint x="626.3636363636365" y="542" as="sourcePoint" />
            <mxPoint x="620" y="598" as="targetPoint" />
          </mxGeometry>
        </mxCell>
        <mxCell id="PSOIu7-MygtbMvIVnS7S-1821" value="" style="edgeStyle=none;rounded=0;jumpStyle=none;html=1;shadow=0;labelBackgroundColor=none;startArrow=none;startFill=0;endArrow=classic;endFill=1;jettySize=auto;orthogonalLoop=1;strokeColor=#2F5B7C;strokeWidth=3;fontFamily=Helvetica;fontSize=16;fontColor=#23445D;spacing=5;" edge="1" parent="1" source="PSOIu7-MygtbMvIVnS7S-1804" target="PSOIu7-MygtbMvIVnS7S-1810">
          <mxGeometry relative="1" as="geometry">
            <mxPoint x="690" y="552" as="sourcePoint" />
            <mxPoint x="690" y="608" as="targetPoint" />
          </mxGeometry>
        </mxCell>
        <mxCell id="PSOIu7-MygtbMvIVnS7S-1822" value="" style="edgeStyle=none;rounded=0;jumpStyle=none;html=1;shadow=0;labelBackgroundColor=none;startArrow=none;startFill=0;endArrow=classic;endFill=1;jettySize=auto;orthogonalLoop=1;strokeColor=#2F5B7C;strokeWidth=3;fontFamily=Helvetica;fontSize=16;fontColor=#23445D;spacing=5;" edge="1" parent="1" source="PSOIu7-MygtbMvIVnS7S-1804" target="PSOIu7-MygtbMvIVnS7S-1809">
          <mxGeometry relative="1" as="geometry">
            <mxPoint x="640" y="562" as="sourcePoint" />
            <mxPoint x="640" y="618" as="targetPoint" />
          </mxGeometry>
        </mxCell>
        <mxCell id="PSOIu7-MygtbMvIVnS7S-1823" value="" style="edgeStyle=none;rounded=0;jumpStyle=none;html=1;shadow=0;labelBackgroundColor=none;startArrow=none;startFill=0;endArrow=classic;endFill=1;jettySize=auto;orthogonalLoop=1;strokeColor=#2F5B7C;strokeWidth=3;fontFamily=Helvetica;fontSize=16;fontColor=#23445D;spacing=5;" edge="1" parent="1" source="PSOIu7-MygtbMvIVnS7S-1802" target="PSOIu7-MygtbMvIVnS7S-1806">
          <mxGeometry relative="1" as="geometry">
            <mxPoint x="650" y="572" as="sourcePoint" />
            <mxPoint x="650" y="628" as="targetPoint" />
          </mxGeometry>
        </mxCell>
        <mxCell id="PSOIu7-MygtbMvIVnS7S-1824" value="" style="edgeStyle=none;rounded=0;jumpStyle=none;html=1;shadow=0;labelBackgroundColor=none;startArrow=none;startFill=0;endArrow=classic;endFill=1;jettySize=auto;orthogonalLoop=1;strokeColor=#2F5B7C;strokeWidth=3;fontFamily=Helvetica;fontSize=16;fontColor=#23445D;spacing=5;" edge="1" parent="1" source="PSOIu7-MygtbMvIVnS7S-1802" target="PSOIu7-MygtbMvIVnS7S-1805">
          <mxGeometry relative="1" as="geometry">
            <mxPoint x="660" y="582" as="sourcePoint" />
            <mxPoint x="660" y="638" as="targetPoint" />
          </mxGeometry>
        </mxCell>
        <mxCell id="PSOIu7-MygtbMvIVnS7S-1825" value="" style="edgeStyle=none;rounded=0;jumpStyle=none;html=1;shadow=0;labelBackgroundColor=none;startArrow=none;startFill=0;endArrow=classic;endFill=1;jettySize=auto;orthogonalLoop=1;strokeColor=#2F5B7C;strokeWidth=3;fontFamily=Helvetica;fontSize=16;fontColor=#23445D;spacing=5;" edge="1" parent="1">
          <mxGeometry relative="1" as="geometry">
            <mxPoint x="162" y="660" as="sourcePoint" />
            <mxPoint x="110" y="770" as="targetPoint" />
            <Array as="points">
              <mxPoint x="162" y="770" />
            </Array>
          </mxGeometry>
        </mxCell>
        <mxCell id="PSOIu7-MygtbMvIVnS7S-1826" value="" style="edgeStyle=none;rounded=0;jumpStyle=none;html=1;shadow=0;labelBackgroundColor=none;startArrow=none;startFill=0;endArrow=classic;endFill=1;jettySize=auto;orthogonalLoop=1;strokeColor=#2F5B7C;strokeWidth=3;fontFamily=Helvetica;fontSize=16;fontColor=#23445D;spacing=5;entryX=1;entryY=0.5;entryDx=0;entryDy=0;exitX=1;exitY=1;exitDx=0;exitDy=0;" edge="1" parent="1" source="PSOIu7-MygtbMvIVnS7S-1805" target="PSOIu7-MygtbMvIVnS7S-1816">
          <mxGeometry relative="1" as="geometry">
            <mxPoint x="680" y="602" as="sourcePoint" />
            <mxPoint x="680" y="658" as="targetPoint" />
            <Array as="points">
              <mxPoint x="162" y="850" />
            </Array>
          </mxGeometry>
        </mxCell>
        <mxCell id="PSOIu7-MygtbMvIVnS7S-1827" value="" style="edgeStyle=none;rounded=0;jumpStyle=none;html=1;shadow=0;labelBackgroundColor=none;startArrow=none;startFill=0;endArrow=classic;endFill=1;jettySize=auto;orthogonalLoop=1;strokeColor=#2F5B7C;strokeWidth=3;fontFamily=Helvetica;fontSize=16;fontColor=#23445D;spacing=5;entryX=1;entryY=0.5;entryDx=0;entryDy=0;exitX=1;exitY=1;exitDx=0;exitDy=0;" edge="1" parent="1" source="PSOIu7-MygtbMvIVnS7S-1805" target="PSOIu7-MygtbMvIVnS7S-1817">
          <mxGeometry relative="1" as="geometry">
            <mxPoint x="160" y="663" as="sourcePoint" />
            <mxPoint x="690" y="668" as="targetPoint" />
            <Array as="points">
              <mxPoint x="160" y="940" />
            </Array>
          </mxGeometry>
        </mxCell>
        <mxCell id="PSOIu7-MygtbMvIVnS7S-1828" value="&lt;font style=&quot;font-size: 11px;&quot;&gt;Políticas de acceso y contraseñas&lt;/font&gt;" style="rounded=1;whiteSpace=wrap;html=1;shadow=0;labelBackgroundColor=none;strokeColor=none;strokeWidth=3;fillColor=light-dark(#E85642,#29170B);fontFamily=Helvetica;fontSize=14;fontColor=#FFFFFF;align=center;spacing=5;fontStyle=1;arcSize=7;perimeterSpacing=2;" vertex="1" parent="1">
          <mxGeometry x="241" y="741" width="90" height="60" as="geometry" />
        </mxCell>
        <mxCell id="PSOIu7-MygtbMvIVnS7S-1829" value="&lt;font style=&quot;font-size: 11px;&quot;&gt;Auditorías de seguridad&lt;/font&gt;" style="rounded=1;whiteSpace=wrap;html=1;shadow=0;labelBackgroundColor=none;strokeColor=none;strokeWidth=3;fillColor=light-dark(#E85642,#29170B);fontFamily=Helvetica;fontSize=14;fontColor=#FFFFFF;align=center;spacing=5;fontStyle=1;arcSize=7;perimeterSpacing=2;" vertex="1" parent="1">
          <mxGeometry x="241" y="821" width="90" height="60" as="geometry" />
        </mxCell>
        <mxCell id="PSOIu7-MygtbMvIVnS7S-1830" value="&lt;font style=&quot;font-size: 11px;&quot;&gt;Backups y recuperación&lt;/font&gt;" style="rounded=1;whiteSpace=wrap;html=1;shadow=0;labelBackgroundColor=none;strokeColor=none;strokeWidth=3;fillColor=light-dark(#E85642,#29170B);fontFamily=Helvetica;fontSize=14;fontColor=#FFFFFF;align=center;spacing=5;fontStyle=1;arcSize=7;perimeterSpacing=2;" vertex="1" parent="1">
          <mxGeometry x="241" y="911" width="90" height="60" as="geometry" />
        </mxCell>
        <mxCell id="PSOIu7-MygtbMvIVnS7S-1831" value="" style="edgeStyle=none;rounded=0;jumpStyle=none;html=1;shadow=0;labelBackgroundColor=none;startArrow=none;startFill=0;endArrow=classic;endFill=1;jettySize=auto;orthogonalLoop=1;strokeColor=#2F5B7C;strokeWidth=3;fontFamily=Helvetica;fontSize=16;fontColor=#23445D;spacing=5;" edge="1" parent="1">
          <mxGeometry relative="1" as="geometry">
            <mxPoint x="203" y="660" as="sourcePoint" />
            <mxPoint x="240" y="770" as="targetPoint" />
            <Array as="points">
              <mxPoint x="203" y="770" />
            </Array>
          </mxGeometry>
        </mxCell>
        <mxCell id="PSOIu7-MygtbMvIVnS7S-1832" value="" style="edgeStyle=none;rounded=0;jumpStyle=none;html=1;shadow=0;labelBackgroundColor=none;startArrow=none;startFill=0;endArrow=classic;endFill=1;jettySize=auto;orthogonalLoop=1;strokeColor=#2F5B7C;strokeWidth=3;fontFamily=Helvetica;fontSize=16;fontColor=#23445D;spacing=5;exitX=1;exitY=1;exitDx=0;exitDy=0;entryX=0;entryY=0.5;entryDx=0;entryDy=0;" edge="1" parent="1" target="PSOIu7-MygtbMvIVnS7S-1829">
          <mxGeometry relative="1" as="geometry">
            <mxPoint x="202" y="662" as="sourcePoint" />
            <mxPoint x="240" y="850" as="targetPoint" />
            <Array as="points">
              <mxPoint x="202" y="850" />
            </Array>
          </mxGeometry>
        </mxCell>
        <mxCell id="PSOIu7-MygtbMvIVnS7S-1833" value="" style="edgeStyle=none;rounded=0;jumpStyle=none;html=1;shadow=0;labelBackgroundColor=none;startArrow=none;startFill=0;endArrow=classic;endFill=1;jettySize=auto;orthogonalLoop=1;strokeColor=#2F5B7C;strokeWidth=3;fontFamily=Helvetica;fontSize=16;fontColor=#23445D;spacing=5;entryX=0;entryY=0.5;entryDx=0;entryDy=0;exitX=1;exitY=1;exitDx=0;exitDy=0;" edge="1" parent="1" target="PSOIu7-MygtbMvIVnS7S-1830">
          <mxGeometry relative="1" as="geometry">
            <mxPoint x="202" y="662" as="sourcePoint" />
            <mxPoint x="152" y="940" as="targetPoint" />
            <Array as="points">
              <mxPoint x="200" y="940" />
            </Array>
          </mxGeometry>
        </mxCell>
        <mxCell id="PSOIu7-MygtbMvIVnS7S-1834" value="&lt;font style=&quot;font-size: 11px;&quot;&gt;Pruebas funcionales&lt;/font&gt;" style="rounded=1;whiteSpace=wrap;html=1;shadow=0;labelBackgroundColor=none;strokeColor=none;strokeWidth=3;fillColor=light-dark(#E85642,#29170B);fontFamily=Helvetica;fontSize=14;fontColor=#FFFFFF;align=center;spacing=5;fontStyle=1;arcSize=7;perimeterSpacing=2;" vertex="1" parent="1">
          <mxGeometry x="717" y="741" width="90" height="60" as="geometry" />
        </mxCell>
        <mxCell id="PSOIu7-MygtbMvIVnS7S-1835" value="&lt;font style=&quot;font-size: 11px;&quot;&gt;Pruebas automatizadas&lt;/font&gt;" style="rounded=1;whiteSpace=wrap;html=1;shadow=0;labelBackgroundColor=none;strokeColor=none;strokeWidth=3;fillColor=light-dark(#E85642,#29170B);fontFamily=Helvetica;fontSize=14;fontColor=#FFFFFF;align=center;spacing=5;fontStyle=1;arcSize=7;perimeterSpacing=2;" vertex="1" parent="1">
          <mxGeometry x="717" y="821" width="90" height="60" as="geometry" />
        </mxCell>
        <mxCell id="PSOIu7-MygtbMvIVnS7S-1836" value="&lt;font style=&quot;font-size: 11px;&quot;&gt;Control de calidad&lt;/font&gt;" style="rounded=1;whiteSpace=wrap;html=1;shadow=0;labelBackgroundColor=none;strokeColor=none;strokeWidth=3;fillColor=light-dark(#E85642,#29170B);fontFamily=Helvetica;fontSize=14;fontColor=#FFFFFF;align=center;spacing=5;fontStyle=1;arcSize=7;perimeterSpacing=2;" vertex="1" parent="1">
          <mxGeometry x="717" y="911" width="90" height="60" as="geometry" />
        </mxCell>
        <mxCell id="PSOIu7-MygtbMvIVnS7S-1837" value="" style="edgeStyle=none;rounded=0;jumpStyle=none;html=1;shadow=0;labelBackgroundColor=none;startArrow=none;startFill=0;endArrow=classic;endFill=1;jettySize=auto;orthogonalLoop=1;strokeColor=#2F5B7C;strokeWidth=3;fontFamily=Helvetica;fontSize=16;fontColor=#23445D;spacing=5;" edge="1" parent="1">
          <mxGeometry relative="1" as="geometry">
            <mxPoint x="691.5" y="660" as="sourcePoint" />
            <mxPoint x="710" y="770" as="targetPoint" />
            <Array as="points">
              <mxPoint x="691.5" y="770" />
            </Array>
          </mxGeometry>
        </mxCell>
        <mxCell id="PSOIu7-MygtbMvIVnS7S-1838" value="" style="edgeStyle=none;rounded=0;jumpStyle=none;html=1;shadow=0;labelBackgroundColor=none;startArrow=none;startFill=0;endArrow=classic;endFill=1;jettySize=auto;orthogonalLoop=1;strokeColor=#2F5B7C;strokeWidth=3;fontFamily=Helvetica;fontSize=16;fontColor=#23445D;spacing=5;exitX=1;exitY=1;exitDx=0;exitDy=0;entryX=0;entryY=0.5;entryDx=0;entryDy=0;" edge="1" parent="1" target="PSOIu7-MygtbMvIVnS7S-1835">
          <mxGeometry relative="1" as="geometry">
            <mxPoint x="692" y="662" as="sourcePoint" />
            <mxPoint x="730" y="850" as="targetPoint" />
            <Array as="points">
              <mxPoint x="692" y="850" />
            </Array>
          </mxGeometry>
        </mxCell>
        <mxCell id="PSOIu7-MygtbMvIVnS7S-1839" value="" style="edgeStyle=none;rounded=0;jumpStyle=none;html=1;shadow=0;labelBackgroundColor=none;startArrow=none;startFill=0;endArrow=classic;endFill=1;jettySize=auto;orthogonalLoop=1;strokeColor=#2F5B7C;strokeWidth=3;fontFamily=Helvetica;fontSize=16;fontColor=#23445D;spacing=5;entryX=0;entryY=0.5;entryDx=0;entryDy=0;exitX=1;exitY=1;exitDx=0;exitDy=0;" edge="1" parent="1" target="PSOIu7-MygtbMvIVnS7S-1836">
          <mxGeometry relative="1" as="geometry">
            <mxPoint x="692" y="662" as="sourcePoint" />
            <mxPoint x="642" y="940" as="targetPoint" />
            <Array as="points">
              <mxPoint x="690" y="940" />
            </Array>
          </mxGeometry>
        </mxCell>
        <mxCell id="PSOIu7-MygtbMvIVnS7S-1843" value="&lt;font style=&quot;font-size: 11px;&quot;&gt;Interfaces gráficas (UI)&lt;/font&gt;" style="rounded=1;whiteSpace=wrap;html=1;shadow=0;labelBackgroundColor=none;strokeColor=none;strokeWidth=3;fillColor=light-dark(#E85642,#29170B);fontFamily=Helvetica;fontSize=14;fontColor=#FFFFFF;align=center;spacing=5;fontStyle=1;arcSize=7;perimeterSpacing=2;" vertex="1" parent="1">
          <mxGeometry x="577" y="741" width="90" height="60" as="geometry" />
        </mxCell>
        <mxCell id="PSOIu7-MygtbMvIVnS7S-1844" value="&lt;font style=&quot;font-size: 11px;&quot;&gt;Experiencia de usuario (UX)&lt;/font&gt;" style="rounded=1;whiteSpace=wrap;html=1;shadow=0;labelBackgroundColor=none;strokeColor=none;strokeWidth=3;fillColor=light-dark(#E85642,#29170B);fontFamily=Helvetica;fontSize=14;fontColor=#FFFFFF;align=center;spacing=5;fontStyle=1;arcSize=7;perimeterSpacing=2;" vertex="1" parent="1">
          <mxGeometry x="577" y="821" width="90" height="60" as="geometry" />
        </mxCell>
        <mxCell id="PSOIu7-MygtbMvIVnS7S-1846" value="" style="edgeStyle=none;rounded=0;jumpStyle=none;html=1;shadow=0;labelBackgroundColor=none;startArrow=none;startFill=0;endArrow=classic;endFill=1;jettySize=auto;orthogonalLoop=1;strokeColor=#2F5B7C;strokeWidth=3;fontFamily=Helvetica;fontSize=16;fontColor=#23445D;spacing=5;" edge="1" parent="1">
          <mxGeometry relative="1" as="geometry">
            <mxPoint x="551.5" y="660" as="sourcePoint" />
            <mxPoint x="570" y="770" as="targetPoint" />
            <Array as="points">
              <mxPoint x="551.5" y="770" />
            </Array>
          </mxGeometry>
        </mxCell>
        <mxCell id="PSOIu7-MygtbMvIVnS7S-1847" value="" style="edgeStyle=none;rounded=0;jumpStyle=none;html=1;shadow=0;labelBackgroundColor=none;startArrow=none;startFill=0;endArrow=classic;endFill=1;jettySize=auto;orthogonalLoop=1;strokeColor=#2F5B7C;strokeWidth=3;fontFamily=Helvetica;fontSize=16;fontColor=#23445D;spacing=5;exitX=1;exitY=1;exitDx=0;exitDy=0;entryX=0;entryY=0.5;entryDx=0;entryDy=0;" edge="1" parent="1" target="PSOIu7-MygtbMvIVnS7S-1844">
          <mxGeometry relative="1" as="geometry">
            <mxPoint x="552" y="662" as="sourcePoint" />
            <mxPoint x="590" y="850" as="targetPoint" />
            <Array as="points">
              <mxPoint x="552" y="850" />
            </Array>
          </mxGeometry>
        </mxCell>
        <mxCell id="PSOIu7-MygtbMvIVnS7S-1849" value="&lt;font style=&quot;font-size: 11px;&quot;&gt;APIs y microservicios&lt;/font&gt;" style="rounded=1;whiteSpace=wrap;html=1;shadow=0;labelBackgroundColor=none;strokeColor=none;strokeWidth=3;fillColor=light-dark(#E85642,#29170B);fontFamily=Helvetica;fontSize=14;fontColor=#FFFFFF;align=center;spacing=5;fontStyle=1;arcSize=7;perimeterSpacing=2;" vertex="1" parent="1">
          <mxGeometry x="427" y="741" width="90" height="60" as="geometry" />
        </mxCell>
        <mxCell id="PSOIu7-MygtbMvIVnS7S-1850" value="&lt;font style=&quot;font-size: 11px;&quot;&gt;Bases de datos (SQL/NoSQL)&lt;/font&gt;" style="rounded=1;whiteSpace=wrap;html=1;shadow=0;labelBackgroundColor=none;strokeColor=none;strokeWidth=3;fillColor=light-dark(#E85642,#29170B);fontFamily=Helvetica;fontSize=14;fontColor=#FFFFFF;align=center;spacing=5;fontStyle=1;arcSize=7;perimeterSpacing=2;" vertex="1" parent="1">
          <mxGeometry x="427" y="821" width="90" height="60" as="geometry" />
        </mxCell>
        <mxCell id="PSOIu7-MygtbMvIVnS7S-1852" value="" style="edgeStyle=none;rounded=0;jumpStyle=none;html=1;shadow=0;labelBackgroundColor=none;startArrow=none;startFill=0;endArrow=classic;endFill=1;jettySize=auto;orthogonalLoop=1;strokeColor=#2F5B7C;strokeWidth=3;fontFamily=Helvetica;fontSize=16;fontColor=#23445D;spacing=5;" edge="1" parent="1">
          <mxGeometry relative="1" as="geometry">
            <mxPoint x="401.5" y="660" as="sourcePoint" />
            <mxPoint x="420" y="770" as="targetPoint" />
            <Array as="points">
              <mxPoint x="401.5" y="770" />
            </Array>
          </mxGeometry>
        </mxCell>
        <mxCell id="PSOIu7-MygtbMvIVnS7S-1853" value="" style="edgeStyle=none;rounded=0;jumpStyle=none;html=1;shadow=0;labelBackgroundColor=none;startArrow=none;startFill=0;endArrow=classic;endFill=1;jettySize=auto;orthogonalLoop=1;strokeColor=#2F5B7C;strokeWidth=3;fontFamily=Helvetica;fontSize=16;fontColor=#23445D;spacing=5;exitX=1;exitY=1;exitDx=0;exitDy=0;entryX=0;entryY=0.5;entryDx=0;entryDy=0;" edge="1" parent="1" target="PSOIu7-MygtbMvIVnS7S-1850">
          <mxGeometry relative="1" as="geometry">
            <mxPoint x="402" y="662" as="sourcePoint" />
            <mxPoint x="440" y="850" as="targetPoint" />
            <Array as="points">
              <mxPoint x="402" y="850" />
            </Array>
          </mxGeometry>
        </mxCell>
        <mxCell id="PSOIu7-MygtbMvIVnS7S-1855" value="&lt;div style=&quot;&quot;&gt;&lt;span style=&quot;background-color: transparent; color: light-dark(rgb(0, 0, 0), rgb(255, 255, 255));&quot;&gt;&lt;font style=&quot;font-size: 36px;&quot;&gt;Departamento de Marketing (CMO)&lt;/font&gt;&lt;/span&gt;&lt;/div&gt;" style="text;whiteSpace=wrap;html=1;align=center;" vertex="1" parent="1">
          <mxGeometry x="42" y="1280" width="750" height="40" as="geometry" />
        </mxCell>
        <mxCell id="PSOIu7-MygtbMvIVnS7S-1856" value="CMO (Marketing)" style="rounded=1;whiteSpace=wrap;html=1;shadow=0;labelBackgroundColor=none;strokeColor=none;strokeWidth=3;fillColor=#1699d3;fontFamily=Helvetica;fontSize=14;fontColor=#FFFFFF;align=center;spacing=5;fontStyle=1;arcSize=7;perimeterSpacing=2;" vertex="1" parent="1">
          <mxGeometry x="320" y="1530" width="160" height="60" as="geometry" />
        </mxCell>
        <mxCell id="PSOIu7-MygtbMvIVnS7S-1857" value="Publicidad y Contenidos" style="rounded=1;whiteSpace=wrap;html=1;shadow=0;labelBackgroundColor=none;strokeColor=none;strokeWidth=3;fillColor=light-dark(#1699D3,#1D6588);fontFamily=Helvetica;fontSize=14;fontColor=#FFFFFF;align=center;spacing=5;fontStyle=1;arcSize=7;perimeterSpacing=2;" vertex="1" parent="1">
          <mxGeometry x="507" y="1660" width="160" height="60" as="geometry" />
        </mxCell>
        <mxCell id="PSOIu7-MygtbMvIVnS7S-1858" value="Estrategia Digital" style="rounded=1;whiteSpace=wrap;html=1;shadow=0;labelBackgroundColor=none;strokeColor=none;strokeWidth=3;fillColor=light-dark(#1699D3,#1D6588);fontFamily=Helvetica;fontSize=14;fontColor=#FFFFFF;align=center;spacing=5;fontStyle=1;arcSize=7;perimeterSpacing=2;" vertex="1" parent="1">
          <mxGeometry x="130" y="1660" width="160" height="60" as="geometry" />
        </mxCell>
        <mxCell id="PSOIu7-MygtbMvIVnS7S-1859" value="" style="edgeStyle=none;rounded=0;jumpStyle=none;html=1;shadow=0;labelBackgroundColor=none;startArrow=none;startFill=0;endArrow=classic;endFill=1;jettySize=auto;orthogonalLoop=1;strokeColor=#2F5B7C;strokeWidth=3;fontFamily=Helvetica;fontSize=16;fontColor=#23445D;spacing=5;entryX=0.5;entryY=0;entryDx=0;entryDy=0;exitX=0.5;exitY=1;exitDx=0;exitDy=0;" edge="1" parent="1" source="PSOIu7-MygtbMvIVnS7S-1856" target="PSOIu7-MygtbMvIVnS7S-1857">
          <mxGeometry relative="1" as="geometry">
            <mxPoint x="603" y="1402" as="sourcePoint" />
            <mxPoint x="497" y="1528" as="targetPoint" />
          </mxGeometry>
        </mxCell>
        <mxCell id="PSOIu7-MygtbMvIVnS7S-1861" value="" style="edgeStyle=none;rounded=0;jumpStyle=none;html=1;shadow=0;labelBackgroundColor=none;startArrow=none;startFill=0;endArrow=classic;endFill=1;jettySize=auto;orthogonalLoop=1;strokeColor=#2F5B7C;strokeWidth=3;fontFamily=Helvetica;fontSize=16;fontColor=#23445D;spacing=5;entryX=0.5;entryY=0;entryDx=0;entryDy=0;exitX=0.5;exitY=1;exitDx=0;exitDy=0;" edge="1" parent="1" source="PSOIu7-MygtbMvIVnS7S-1856" target="PSOIu7-MygtbMvIVnS7S-1858">
          <mxGeometry relative="1" as="geometry">
            <mxPoint x="260" y="1602" as="sourcePoint" />
            <mxPoint x="447" y="1668" as="targetPoint" />
          </mxGeometry>
        </mxCell>
        <mxCell id="PSOIu7-MygtbMvIVnS7S-1862" value="Campañas online" style="rounded=1;whiteSpace=wrap;html=1;shadow=0;labelBackgroundColor=none;strokeColor=none;strokeWidth=3;fillColor=light-dark(#1699D3,#0E2F41);fontFamily=Helvetica;fontSize=14;fontColor=#FFFFFF;align=center;spacing=5;fontStyle=1;arcSize=7;perimeterSpacing=2;" vertex="1" parent="1">
          <mxGeometry x="600" y="1800" width="160" height="60" as="geometry" />
        </mxCell>
        <mxCell id="PSOIu7-MygtbMvIVnS7S-1863" value="Diseño gráfico y multimedia" style="rounded=1;whiteSpace=wrap;html=1;shadow=0;labelBackgroundColor=none;strokeColor=none;strokeWidth=3;fillColor=light-dark(#1699D3,#0E2F41);fontFamily=Helvetica;fontSize=14;fontColor=#FFFFFF;align=center;spacing=5;fontStyle=1;arcSize=7;perimeterSpacing=2;" vertex="1" parent="1">
          <mxGeometry x="600" y="1910" width="160" height="60" as="geometry" />
        </mxCell>
        <mxCell id="PSOIu7-MygtbMvIVnS7S-1864" value="Redacción de contenidos" style="rounded=1;whiteSpace=wrap;html=1;shadow=0;labelBackgroundColor=none;strokeColor=none;strokeWidth=3;fillColor=light-dark(#1699D3,#0E2F41);fontFamily=Helvetica;fontSize=14;fontColor=#FFFFFF;align=center;spacing=5;fontStyle=1;arcSize=7;perimeterSpacing=2;" vertex="1" parent="1">
          <mxGeometry x="590" y="2030" width="160" height="60" as="geometry" />
        </mxCell>
        <mxCell id="PSOIu7-MygtbMvIVnS7S-1865" value="SEO y posicionamiento" style="rounded=1;whiteSpace=wrap;html=1;shadow=0;labelBackgroundColor=none;strokeColor=none;strokeWidth=3;fillColor=light-dark(#1699D3,#0E2F41);fontFamily=Helvetica;fontSize=14;fontColor=#FFFFFF;align=center;spacing=5;fontStyle=1;arcSize=7;perimeterSpacing=2;" vertex="1" parent="1">
          <mxGeometry x="60" y="1800" width="160" height="60" as="geometry" />
        </mxCell>
        <mxCell id="PSOIu7-MygtbMvIVnS7S-1866" value="Analítica web" style="rounded=1;whiteSpace=wrap;html=1;shadow=0;labelBackgroundColor=none;strokeColor=none;strokeWidth=3;fillColor=light-dark(#1699D3,#0E2F41);fontFamily=Helvetica;fontSize=14;fontColor=#FFFFFF;align=center;spacing=5;fontStyle=1;arcSize=7;perimeterSpacing=2;" vertex="1" parent="1">
          <mxGeometry x="60" y="1910" width="160" height="60" as="geometry" />
        </mxCell>
        <mxCell id="PSOIu7-MygtbMvIVnS7S-1867" value="Gestión de redes sociales" style="rounded=1;whiteSpace=wrap;html=1;shadow=0;labelBackgroundColor=none;strokeColor=none;strokeWidth=3;fillColor=light-dark(#1699D3,#0E2F41);fontFamily=Helvetica;fontSize=14;fontColor=#FFFFFF;align=center;spacing=5;fontStyle=1;arcSize=7;perimeterSpacing=2;" vertex="1" parent="1">
          <mxGeometry x="60" y="2030" width="160" height="60" as="geometry" />
        </mxCell>
        <mxCell id="PSOIu7-MygtbMvIVnS7S-1868" value="" style="edgeStyle=none;rounded=0;jumpStyle=none;html=1;shadow=0;labelBackgroundColor=none;startArrow=none;startFill=0;endArrow=classic;endFill=1;jettySize=auto;orthogonalLoop=1;strokeColor=#2F5B7C;strokeWidth=3;fontFamily=Helvetica;fontSize=16;fontColor=#23445D;spacing=5;exitX=0.328;exitY=0.96;exitDx=0;exitDy=0;exitPerimeter=0;entryX=0;entryY=0.5;entryDx=0;entryDy=0;" edge="1" parent="1" source="PSOIu7-MygtbMvIVnS7S-1857" target="PSOIu7-MygtbMvIVnS7S-1862">
          <mxGeometry relative="1" as="geometry">
            <mxPoint x="550" y="1720" as="sourcePoint" />
            <mxPoint x="590" y="1830" as="targetPoint" />
            <Array as="points">
              <mxPoint x="559" y="1830" />
            </Array>
          </mxGeometry>
        </mxCell>
        <mxCell id="PSOIu7-MygtbMvIVnS7S-1869" value="" style="edgeStyle=none;rounded=0;jumpStyle=none;html=1;shadow=0;labelBackgroundColor=none;startArrow=none;startFill=0;endArrow=classic;endFill=1;jettySize=auto;orthogonalLoop=1;strokeColor=#2F5B7C;strokeWidth=3;fontFamily=Helvetica;fontSize=16;fontColor=#23445D;spacing=5;entryX=0;entryY=0.5;entryDx=0;entryDy=0;exitX=0.324;exitY=0.95;exitDx=0;exitDy=0;exitPerimeter=0;" edge="1" parent="1" source="PSOIu7-MygtbMvIVnS7S-1857" target="PSOIu7-MygtbMvIVnS7S-1863">
          <mxGeometry relative="1" as="geometry">
            <mxPoint x="569" y="1729" as="sourcePoint" />
            <mxPoint x="607" y="1839.9999999999995" as="targetPoint" />
            <Array as="points">
              <mxPoint x="560" y="1940" />
            </Array>
          </mxGeometry>
        </mxCell>
        <mxCell id="PSOIu7-MygtbMvIVnS7S-1870" value="" style="edgeStyle=none;rounded=0;jumpStyle=none;html=1;shadow=0;labelBackgroundColor=none;startArrow=none;startFill=0;endArrow=classic;endFill=1;jettySize=auto;orthogonalLoop=1;strokeColor=#2F5B7C;strokeWidth=3;fontFamily=Helvetica;fontSize=16;fontColor=#23445D;spacing=5;entryX=0;entryY=0.5;entryDx=0;entryDy=0;exitX=0.32;exitY=0.941;exitDx=0;exitDy=0;exitPerimeter=0;" edge="1" parent="1" source="PSOIu7-MygtbMvIVnS7S-1857" target="PSOIu7-MygtbMvIVnS7S-1864">
          <mxGeometry relative="1" as="geometry">
            <mxPoint x="579" y="1739" as="sourcePoint" />
            <mxPoint x="617" y="1849.9999999999995" as="targetPoint" />
            <Array as="points">
              <mxPoint x="560" y="2060" />
            </Array>
          </mxGeometry>
        </mxCell>
        <mxCell id="PSOIu7-MygtbMvIVnS7S-1871" value="" style="edgeStyle=none;rounded=0;jumpStyle=none;html=1;shadow=0;labelBackgroundColor=none;startArrow=none;startFill=0;endArrow=classic;endFill=1;jettySize=auto;orthogonalLoop=1;strokeColor=#2F5B7C;strokeWidth=3;fontFamily=Helvetica;fontSize=16;fontColor=#23445D;spacing=5;exitX=0.328;exitY=0.96;exitDx=0;exitDy=0;exitPerimeter=0;entryX=1;entryY=0.5;entryDx=0;entryDy=0;" edge="1" parent="1" target="PSOIu7-MygtbMvIVnS7S-1865">
          <mxGeometry relative="1" as="geometry">
            <mxPoint x="259" y="1719" as="sourcePoint" />
            <mxPoint x="298" y="1830" as="targetPoint" />
            <Array as="points">
              <mxPoint x="259" y="1830" />
            </Array>
          </mxGeometry>
        </mxCell>
        <mxCell id="PSOIu7-MygtbMvIVnS7S-1872" value="" style="edgeStyle=none;rounded=0;jumpStyle=none;html=1;shadow=0;labelBackgroundColor=none;startArrow=none;startFill=0;endArrow=classic;endFill=1;jettySize=auto;orthogonalLoop=1;strokeColor=#2F5B7C;strokeWidth=3;fontFamily=Helvetica;fontSize=16;fontColor=#23445D;spacing=5;entryX=1;entryY=0.5;entryDx=0;entryDy=0;exitX=0.324;exitY=0.95;exitDx=0;exitDy=0;exitPerimeter=0;" edge="1" parent="1" target="PSOIu7-MygtbMvIVnS7S-1866">
          <mxGeometry relative="1" as="geometry">
            <mxPoint x="258" y="1719" as="sourcePoint" />
            <mxPoint x="298" y="1940" as="targetPoint" />
            <Array as="points">
              <mxPoint x="260" y="1940" />
            </Array>
          </mxGeometry>
        </mxCell>
        <mxCell id="PSOIu7-MygtbMvIVnS7S-1873" value="" style="edgeStyle=none;rounded=0;jumpStyle=none;html=1;shadow=0;labelBackgroundColor=none;startArrow=none;startFill=0;endArrow=classic;endFill=1;jettySize=auto;orthogonalLoop=1;strokeColor=#2F5B7C;strokeWidth=3;fontFamily=Helvetica;fontSize=16;fontColor=#23445D;spacing=5;entryX=1;entryY=0.5;entryDx=0;entryDy=0;exitX=0.32;exitY=0.941;exitDx=0;exitDy=0;exitPerimeter=0;" edge="1" parent="1" target="PSOIu7-MygtbMvIVnS7S-1867">
          <mxGeometry relative="1" as="geometry">
            <mxPoint x="257" y="1718" as="sourcePoint" />
            <mxPoint x="288" y="2060" as="targetPoint" />
            <Array as="points">
              <mxPoint x="260" y="2060" />
            </Array>
          </mxGeometry>
        </mxCell>
        <mxCell id="PSOIu7-MygtbMvIVnS7S-1874" value="&lt;font style=&quot;font-size: 36px;&quot;&gt;Departamento de Finanzas (CFO)&lt;/font&gt;" style="text;whiteSpace=wrap;html=1;align=center;" vertex="1" parent="1">
          <mxGeometry x="50" y="2460" width="740" height="40" as="geometry" />
        </mxCell>
        <mxCell id="PSOIu7-MygtbMvIVnS7S-1875" value="CFO (Finanzas)" style="rounded=1;whiteSpace=wrap;html=1;shadow=0;labelBackgroundColor=none;strokeColor=none;strokeWidth=3;fillColor=#12aab5;fontFamily=Helvetica;fontSize=14;fontColor=#FFFFFF;align=center;spacing=5;fontStyle=1;arcSize=7;perimeterSpacing=2;" vertex="1" parent="1">
          <mxGeometry x="330" y="2694" width="160" height="60" as="geometry" />
        </mxCell>
        <mxCell id="PSOIu7-MygtbMvIVnS7S-1876" value="Facturación" style="rounded=1;whiteSpace=wrap;html=1;shadow=0;labelBackgroundColor=none;strokeColor=none;strokeWidth=3;fillColor=light-dark(#12AAB5,#0E6C73);fontFamily=Helvetica;fontSize=14;fontColor=#FFFFFF;align=center;spacing=5;fontStyle=1;arcSize=7;perimeterSpacing=2;" vertex="1" parent="1">
          <mxGeometry x="530" y="2820" width="160" height="60" as="geometry" />
        </mxCell>
        <mxCell id="PSOIu7-MygtbMvIVnS7S-1877" value="Contabilidad" style="rounded=1;whiteSpace=wrap;html=1;shadow=0;labelBackgroundColor=none;strokeColor=none;strokeWidth=3;fillColor=light-dark(#12AAB5,#0E6C73);fontFamily=Helvetica;fontSize=14;fontColor=#FFFFFF;align=center;spacing=5;fontStyle=1;arcSize=7;perimeterSpacing=2;" vertex="1" parent="1">
          <mxGeometry x="130" y="2820" width="160" height="60" as="geometry" />
        </mxCell>
        <mxCell id="PSOIu7-MygtbMvIVnS7S-1878" value="" style="edgeStyle=none;rounded=0;jumpStyle=none;html=1;shadow=0;labelBackgroundColor=none;startArrow=none;startFill=0;endArrow=classic;endFill=1;jettySize=auto;orthogonalLoop=1;strokeColor=#2F5B7C;strokeWidth=3;fontFamily=Helvetica;fontSize=16;fontColor=#23445D;spacing=5;exitX=0.5;exitY=1;exitDx=0;exitDy=0;entryX=0.5;entryY=0;entryDx=0;entryDy=0;" edge="1" parent="1" source="PSOIu7-MygtbMvIVnS7S-1875" target="PSOIu7-MygtbMvIVnS7S-1877">
          <mxGeometry relative="1" as="geometry">
            <mxPoint x="410" y="2180" as="sourcePoint" />
            <mxPoint x="410" y="2400" as="targetPoint" />
          </mxGeometry>
        </mxCell>
        <mxCell id="PSOIu7-MygtbMvIVnS7S-1879" value="" style="edgeStyle=none;rounded=0;jumpStyle=none;html=1;shadow=0;labelBackgroundColor=none;startArrow=none;startFill=0;endArrow=classic;endFill=1;jettySize=auto;orthogonalLoop=1;strokeColor=#2F5B7C;strokeWidth=3;fontFamily=Helvetica;fontSize=16;fontColor=#23445D;spacing=5;exitX=0.5;exitY=1;exitDx=0;exitDy=0;entryX=0.5;entryY=0;entryDx=0;entryDy=0;" edge="1" parent="1" source="PSOIu7-MygtbMvIVnS7S-1875" target="PSOIu7-MygtbMvIVnS7S-1876">
          <mxGeometry relative="1" as="geometry">
            <mxPoint x="420" y="2766" as="sourcePoint" />
            <mxPoint x="220" y="2828" as="targetPoint" />
          </mxGeometry>
        </mxCell>
        <mxCell id="PSOIu7-MygtbMvIVnS7S-1880" value="Emisión de facturas" style="rounded=1;whiteSpace=wrap;html=1;shadow=0;labelBackgroundColor=none;strokeColor=none;strokeWidth=3;fillColor=light-dark(#12AAB5,#0D3F44);fontFamily=Helvetica;fontSize=14;fontColor=#FFFFFF;align=center;spacing=5;fontStyle=1;arcSize=7;perimeterSpacing=2;" vertex="1" parent="1">
          <mxGeometry x="620" y="2940" width="160" height="60" as="geometry" />
        </mxCell>
        <mxCell id="PSOIu7-MygtbMvIVnS7S-1881" value="Seguimiento de cobros/pagos" style="rounded=1;whiteSpace=wrap;html=1;shadow=0;labelBackgroundColor=none;strokeColor=none;strokeWidth=3;fillColor=light-dark(#12AAB5,#0D3F44);fontFamily=Helvetica;fontSize=14;fontColor=#FFFFFF;align=center;spacing=5;fontStyle=1;arcSize=7;perimeterSpacing=2;" vertex="1" parent="1">
          <mxGeometry x="620" y="3080" width="160" height="60" as="geometry" />
        </mxCell>
        <mxCell id="PSOIu7-MygtbMvIVnS7S-1882" value="Relación con proveedores" style="rounded=1;whiteSpace=wrap;html=1;shadow=0;labelBackgroundColor=none;strokeColor=none;strokeWidth=3;fillColor=light-dark(#12AAB5,#0D3F44);fontFamily=Helvetica;fontSize=14;fontColor=#FFFFFF;align=center;spacing=5;fontStyle=1;arcSize=7;perimeterSpacing=2;" vertex="1" parent="1">
          <mxGeometry x="620" y="3220" width="160" height="60" as="geometry" />
        </mxCell>
        <mxCell id="PSOIu7-MygtbMvIVnS7S-1883" value="Registro contable" style="rounded=1;whiteSpace=wrap;html=1;shadow=0;labelBackgroundColor=none;strokeColor=none;strokeWidth=3;fillColor=light-dark(#12AAB5,#0D3F44);fontFamily=Helvetica;fontSize=14;fontColor=#FFFFFF;align=center;spacing=5;fontStyle=1;arcSize=7;perimeterSpacing=2;" vertex="1" parent="1">
          <mxGeometry x="40" y="2940" width="160" height="60" as="geometry" />
        </mxCell>
        <mxCell id="PSOIu7-MygtbMvIVnS7S-1884" value="Conciliaciones bancarias" style="rounded=1;whiteSpace=wrap;html=1;shadow=0;labelBackgroundColor=none;strokeColor=none;strokeWidth=3;fillColor=light-dark(#12AAB5,#0D3F44);fontFamily=Helvetica;fontSize=14;fontColor=#FFFFFF;align=center;spacing=5;fontStyle=1;arcSize=7;perimeterSpacing=2;" vertex="1" parent="1">
          <mxGeometry x="40" y="3080" width="160" height="60" as="geometry" />
        </mxCell>
        <mxCell id="PSOIu7-MygtbMvIVnS7S-1885" value="Cierres mensuales/anuales" style="rounded=1;whiteSpace=wrap;html=1;shadow=0;labelBackgroundColor=none;strokeColor=none;strokeWidth=3;fillColor=light-dark(#12AAB5,#0D3F44);fontFamily=Helvetica;fontSize=14;fontColor=#FFFFFF;align=center;spacing=5;fontStyle=1;arcSize=7;perimeterSpacing=2;" vertex="1" parent="1">
          <mxGeometry x="40" y="3220" width="160" height="60" as="geometry" />
        </mxCell>
        <mxCell id="PSOIu7-MygtbMvIVnS7S-1886" value="" style="edgeStyle=none;rounded=0;jumpStyle=none;html=1;shadow=0;labelBackgroundColor=none;startArrow=none;startFill=0;endArrow=classic;endFill=1;jettySize=auto;orthogonalLoop=1;strokeColor=#2F5B7C;strokeWidth=3;fontFamily=Helvetica;fontSize=16;fontColor=#23445D;spacing=5;entryX=0;entryY=0.5;entryDx=0;entryDy=0;exitX=0.193;exitY=0.989;exitDx=0;exitDy=0;exitPerimeter=0;" edge="1" parent="1" source="PSOIu7-MygtbMvIVnS7S-1876" target="PSOIu7-MygtbMvIVnS7S-1880">
          <mxGeometry relative="1" as="geometry">
            <mxPoint x="490" y="2920" as="sourcePoint" />
            <mxPoint x="620" y="3088" as="targetPoint" />
            <Array as="points">
              <mxPoint x="560" y="2970" />
            </Array>
          </mxGeometry>
        </mxCell>
        <mxCell id="PSOIu7-MygtbMvIVnS7S-1887" value="" style="edgeStyle=none;rounded=0;jumpStyle=none;html=1;shadow=0;labelBackgroundColor=none;startArrow=none;startFill=0;endArrow=classic;endFill=1;jettySize=auto;orthogonalLoop=1;strokeColor=#2F5B7C;strokeWidth=3;fontFamily=Helvetica;fontSize=16;fontColor=#23445D;spacing=5;entryX=0;entryY=0.5;entryDx=0;entryDy=0;exitX=0.193;exitY=1.038;exitDx=0;exitDy=0;exitPerimeter=0;" edge="1" parent="1" source="PSOIu7-MygtbMvIVnS7S-1876" target="PSOIu7-MygtbMvIVnS7S-1881">
          <mxGeometry relative="1" as="geometry">
            <mxPoint x="560" y="2891" as="sourcePoint" />
            <mxPoint x="618" y="2980" as="targetPoint" />
            <Array as="points">
              <mxPoint x="560" y="3110" />
            </Array>
          </mxGeometry>
        </mxCell>
        <mxCell id="PSOIu7-MygtbMvIVnS7S-1888" value="" style="edgeStyle=none;rounded=0;jumpStyle=none;html=1;shadow=0;labelBackgroundColor=none;startArrow=none;startFill=0;endArrow=classic;endFill=1;jettySize=auto;orthogonalLoop=1;strokeColor=#2F5B7C;strokeWidth=3;fontFamily=Helvetica;fontSize=16;fontColor=#23445D;spacing=5;entryX=0;entryY=0.5;entryDx=0;entryDy=0;exitX=0.199;exitY=0.956;exitDx=0;exitDy=0;exitPerimeter=0;" edge="1" parent="1" source="PSOIu7-MygtbMvIVnS7S-1876" target="PSOIu7-MygtbMvIVnS7S-1882">
          <mxGeometry relative="1" as="geometry">
            <mxPoint x="570" y="2894" as="sourcePoint" />
            <mxPoint x="628" y="3120" as="targetPoint" />
            <Array as="points">
              <mxPoint x="560" y="3250" />
            </Array>
          </mxGeometry>
        </mxCell>
        <mxCell id="PSOIu7-MygtbMvIVnS7S-1889" value="" style="edgeStyle=none;rounded=0;jumpStyle=none;html=1;shadow=0;labelBackgroundColor=none;startArrow=none;startFill=0;endArrow=classic;endFill=1;jettySize=auto;orthogonalLoop=1;strokeColor=#2F5B7C;strokeWidth=3;fontFamily=Helvetica;fontSize=16;fontColor=#23445D;spacing=5;entryX=1;entryY=0.5;entryDx=0;entryDy=0;exitX=0.193;exitY=0.989;exitDx=0;exitDy=0;exitPerimeter=0;" edge="1" parent="1" target="PSOIu7-MygtbMvIVnS7S-1883">
          <mxGeometry relative="1" as="geometry">
            <mxPoint x="240" y="2881" as="sourcePoint" />
            <mxPoint x="298" y="2970" as="targetPoint" />
            <Array as="points">
              <mxPoint x="240" y="2970" />
            </Array>
          </mxGeometry>
        </mxCell>
        <mxCell id="PSOIu7-MygtbMvIVnS7S-1890" value="" style="edgeStyle=none;rounded=0;jumpStyle=none;html=1;shadow=0;labelBackgroundColor=none;startArrow=none;startFill=0;endArrow=classic;endFill=1;jettySize=auto;orthogonalLoop=1;strokeColor=#2F5B7C;strokeWidth=3;fontFamily=Helvetica;fontSize=16;fontColor=#23445D;spacing=5;exitX=0.193;exitY=1.038;exitDx=0;exitDy=0;exitPerimeter=0;" edge="1" parent="1" target="PSOIu7-MygtbMvIVnS7S-1884">
          <mxGeometry relative="1" as="geometry">
            <mxPoint x="240" y="2884" as="sourcePoint" />
            <mxPoint x="298" y="3110" as="targetPoint" />
            <Array as="points">
              <mxPoint x="240" y="3110" />
            </Array>
          </mxGeometry>
        </mxCell>
        <mxCell id="PSOIu7-MygtbMvIVnS7S-1891" value="" style="edgeStyle=none;rounded=0;jumpStyle=none;html=1;shadow=0;labelBackgroundColor=none;startArrow=none;startFill=0;endArrow=classic;endFill=1;jettySize=auto;orthogonalLoop=1;strokeColor=#2F5B7C;strokeWidth=3;fontFamily=Helvetica;fontSize=16;fontColor=#23445D;spacing=5;entryX=1;entryY=0.5;entryDx=0;entryDy=0;exitX=0.199;exitY=0.956;exitDx=0;exitDy=0;exitPerimeter=0;" edge="1" parent="1" target="PSOIu7-MygtbMvIVnS7S-1885">
          <mxGeometry relative="1" as="geometry">
            <mxPoint x="241" y="2879" as="sourcePoint" />
            <mxPoint x="298" y="3250" as="targetPoint" />
            <Array as="points">
              <mxPoint x="240" y="3250" />
            </Array>
          </mxGeometry>
        </mxCell>
        <mxCell id="PSOIu7-MygtbMvIVnS7S-1893" value="&lt;font style=&quot;font-size: 36px;&quot;&gt;Departamento de Recursos Humanos&lt;/font&gt;" style="text;whiteSpace=wrap;html=1;align=center;" vertex="1" parent="1">
          <mxGeometry x="50" y="3600" width="710" height="40" as="geometry" />
        </mxCell>
        <mxCell id="PSOIu7-MygtbMvIVnS7S-1894" value="Recursos Humanos" style="rounded=1;whiteSpace=wrap;html=1;shadow=0;labelBackgroundColor=none;strokeColor=none;strokeWidth=3;fillColor=#F08705;fontFamily=Helvetica;fontSize=14;fontColor=#FFFFFF;align=center;spacing=5;fontStyle=1;arcSize=7;perimeterSpacing=2;" vertex="1" parent="1">
          <mxGeometry x="320" y="3862" width="160" height="60" as="geometry" />
        </mxCell>
        <mxCell id="PSOIu7-MygtbMvIVnS7S-1895" value="Formación y Desarrollo" style="rounded=1;whiteSpace=wrap;html=1;shadow=0;labelBackgroundColor=none;strokeColor=none;strokeWidth=3;fillColor=light-dark(#F08705,#834800);fontFamily=Helvetica;fontSize=14;fontColor=#FFFFFF;align=center;spacing=5;fontStyle=1;arcSize=7;perimeterSpacing=2;" vertex="1" parent="1">
          <mxGeometry x="520" y="4042" width="160" height="60" as="geometry" />
        </mxCell>
        <mxCell id="PSOIu7-MygtbMvIVnS7S-1896" value="Selección de Personal" style="rounded=1;whiteSpace=wrap;html=1;shadow=0;labelBackgroundColor=none;strokeColor=none;strokeWidth=3;fillColor=light-dark(#F08705,#834800);fontFamily=Helvetica;fontSize=14;fontColor=#FFFFFF;align=center;spacing=5;fontStyle=1;arcSize=7;perimeterSpacing=2;" vertex="1" parent="1">
          <mxGeometry x="120" y="4042" width="160" height="60" as="geometry" />
        </mxCell>
        <mxCell id="PSOIu7-MygtbMvIVnS7S-1897" value="Planes de carrera" style="rounded=1;whiteSpace=wrap;html=1;shadow=0;labelBackgroundColor=none;strokeColor=none;strokeWidth=3;fillColor=light-dark(#F08705,#412500);fontFamily=Helvetica;fontSize=14;fontColor=#FFFFFF;align=center;spacing=5;fontStyle=1;arcSize=7;perimeterSpacing=2;" vertex="1" parent="1">
          <mxGeometry x="600" y="4162" width="160" height="60" as="geometry" />
        </mxCell>
        <mxCell id="PSOIu7-MygtbMvIVnS7S-1898" value="Capacitaciones" style="rounded=1;whiteSpace=wrap;html=1;shadow=0;labelBackgroundColor=none;strokeColor=none;strokeWidth=3;fillColor=light-dark(#F08705,#412500);fontFamily=Helvetica;fontSize=14;fontColor=#FFFFFF;align=center;spacing=5;fontStyle=1;arcSize=7;perimeterSpacing=2;" vertex="1" parent="1">
          <mxGeometry x="600" y="4302" width="160" height="60" as="geometry" />
        </mxCell>
        <mxCell id="PSOIu7-MygtbMvIVnS7S-1899" value="Evaluaciones de desempeño" style="rounded=1;whiteSpace=wrap;html=1;shadow=0;labelBackgroundColor=none;strokeColor=none;strokeWidth=3;fillColor=light-dark(#F08705,#412500);fontFamily=Helvetica;fontSize=14;fontColor=#FFFFFF;align=center;spacing=5;fontStyle=1;arcSize=7;perimeterSpacing=2;" vertex="1" parent="1">
          <mxGeometry x="600" y="4442" width="160" height="60" as="geometry" />
        </mxCell>
        <mxCell id="PSOIu7-MygtbMvIVnS7S-1900" value="Publicación de vacantes" style="rounded=1;whiteSpace=wrap;html=1;shadow=0;labelBackgroundColor=none;strokeColor=none;strokeWidth=3;fillColor=light-dark(#F08705,#412500);fontFamily=Helvetica;fontSize=14;fontColor=#FFFFFF;align=center;spacing=5;fontStyle=1;arcSize=7;perimeterSpacing=2;" vertex="1" parent="1">
          <mxGeometry x="40" y="4172" width="160" height="60" as="geometry" />
        </mxCell>
        <mxCell id="PSOIu7-MygtbMvIVnS7S-1901" value="Entrevistas" style="rounded=1;whiteSpace=wrap;html=1;shadow=0;labelBackgroundColor=none;strokeColor=none;strokeWidth=3;fillColor=light-dark(#F08705,#412500);fontFamily=Helvetica;fontSize=14;fontColor=#FFFFFF;align=center;spacing=5;fontStyle=1;arcSize=7;perimeterSpacing=2;" vertex="1" parent="1">
          <mxGeometry x="40" y="4312" width="160" height="60" as="geometry" />
        </mxCell>
        <mxCell id="PSOIu7-MygtbMvIVnS7S-1902" value="Incorporación" style="rounded=1;whiteSpace=wrap;html=1;shadow=0;labelBackgroundColor=none;strokeColor=none;strokeWidth=3;fillColor=light-dark(#F08705,#412500);fontFamily=Helvetica;fontSize=14;fontColor=#FFFFFF;align=center;spacing=5;fontStyle=1;arcSize=7;perimeterSpacing=2;" vertex="1" parent="1">
          <mxGeometry x="40" y="4452" width="160" height="60" as="geometry" />
        </mxCell>
        <mxCell id="PSOIu7-MygtbMvIVnS7S-1903" value="" style="edgeStyle=none;rounded=0;jumpStyle=none;html=1;shadow=0;labelBackgroundColor=none;startArrow=none;startFill=0;endArrow=classic;endFill=1;jettySize=auto;orthogonalLoop=1;strokeColor=#2F5B7C;strokeWidth=3;fontFamily=Helvetica;fontSize=16;fontColor=#23445D;spacing=5;entryX=0.009;entryY=0.621;entryDx=0;entryDy=0;exitX=0.25;exitY=1;exitDx=0;exitDy=0;entryPerimeter=0;" edge="1" parent="1" source="PSOIu7-MygtbMvIVnS7S-1895" target="PSOIu7-MygtbMvIVnS7S-1897">
          <mxGeometry relative="1" as="geometry">
            <mxPoint x="570" y="4111" as="sourcePoint" />
            <mxPoint x="628" y="4200" as="targetPoint" />
            <Array as="points">
              <mxPoint x="560" y="4200" />
            </Array>
          </mxGeometry>
        </mxCell>
        <mxCell id="PSOIu7-MygtbMvIVnS7S-1904" value="" style="edgeStyle=none;rounded=0;jumpStyle=none;html=1;shadow=0;labelBackgroundColor=none;startArrow=none;startFill=0;endArrow=classic;endFill=1;jettySize=auto;orthogonalLoop=1;strokeColor=#2F5B7C;strokeWidth=3;fontFamily=Helvetica;fontSize=16;fontColor=#23445D;spacing=5;entryX=0.009;entryY=0.6;entryDx=0;entryDy=0;exitX=0.25;exitY=1;exitDx=0;exitDy=0;entryPerimeter=0;" edge="1" parent="1" source="PSOIu7-MygtbMvIVnS7S-1895" target="PSOIu7-MygtbMvIVnS7S-1898">
          <mxGeometry relative="1" as="geometry">
            <mxPoint x="570" y="4114" as="sourcePoint" />
            <mxPoint x="628" y="4340" as="targetPoint" />
            <Array as="points">
              <mxPoint x="559" y="4340" />
            </Array>
          </mxGeometry>
        </mxCell>
        <mxCell id="PSOIu7-MygtbMvIVnS7S-1905" value="" style="edgeStyle=none;rounded=0;jumpStyle=none;html=1;shadow=0;labelBackgroundColor=none;startArrow=none;startFill=0;endArrow=classic;endFill=1;jettySize=auto;orthogonalLoop=1;strokeColor=#2F5B7C;strokeWidth=3;fontFamily=Helvetica;fontSize=16;fontColor=#23445D;spacing=5;entryX=-0.004;entryY=0.624;entryDx=0;entryDy=0;exitX=0.25;exitY=1;exitDx=0;exitDy=0;entryPerimeter=0;" edge="1" parent="1" source="PSOIu7-MygtbMvIVnS7S-1895" target="PSOIu7-MygtbMvIVnS7S-1899">
          <mxGeometry relative="1" as="geometry">
            <mxPoint x="571" y="4109" as="sourcePoint" />
            <mxPoint x="628" y="4480" as="targetPoint" />
            <Array as="points">
              <mxPoint x="560" y="4480" />
            </Array>
          </mxGeometry>
        </mxCell>
        <mxCell id="PSOIu7-MygtbMvIVnS7S-1906" value="" style="edgeStyle=none;rounded=0;jumpStyle=none;html=1;shadow=0;labelBackgroundColor=none;startArrow=none;startFill=0;endArrow=classic;endFill=1;jettySize=auto;orthogonalLoop=1;strokeColor=#2F5B7C;strokeWidth=3;fontFamily=Helvetica;fontSize=16;fontColor=#23445D;spacing=5;entryX=0.971;entryY=0.448;entryDx=0;entryDy=0;exitX=0.25;exitY=1;exitDx=0;exitDy=0;entryPerimeter=0;" edge="1" parent="1" target="PSOIu7-MygtbMvIVnS7S-1900">
          <mxGeometry relative="1" as="geometry">
            <mxPoint x="239" y="4102" as="sourcePoint" />
            <mxPoint x="279" y="4198" as="targetPoint" />
            <Array as="points">
              <mxPoint x="240" y="4198" />
            </Array>
          </mxGeometry>
        </mxCell>
        <mxCell id="PSOIu7-MygtbMvIVnS7S-1907" value="" style="edgeStyle=none;rounded=0;jumpStyle=none;html=1;shadow=0;labelBackgroundColor=none;startArrow=none;startFill=0;endArrow=classic;endFill=1;jettySize=auto;orthogonalLoop=1;strokeColor=#2F5B7C;strokeWidth=3;fontFamily=Helvetica;fontSize=16;fontColor=#23445D;spacing=5;entryX=0.992;entryY=0.436;entryDx=0;entryDy=0;exitX=0.25;exitY=1;exitDx=0;exitDy=0;entryPerimeter=0;" edge="1" parent="1" target="PSOIu7-MygtbMvIVnS7S-1901">
          <mxGeometry relative="1" as="geometry">
            <mxPoint x="239" y="4102" as="sourcePoint" />
            <mxPoint x="279" y="4336" as="targetPoint" />
            <Array as="points">
              <mxPoint x="239" y="4338" />
            </Array>
          </mxGeometry>
        </mxCell>
        <mxCell id="PSOIu7-MygtbMvIVnS7S-1908" value="" style="edgeStyle=none;rounded=0;jumpStyle=none;html=1;shadow=0;labelBackgroundColor=none;startArrow=none;startFill=0;endArrow=classic;endFill=1;jettySize=auto;orthogonalLoop=1;strokeColor=#2F5B7C;strokeWidth=3;fontFamily=Helvetica;fontSize=16;fontColor=#23445D;spacing=5;entryX=0.992;entryY=0.434;entryDx=0;entryDy=0;exitX=0.25;exitY=1;exitDx=0;exitDy=0;entryPerimeter=0;" edge="1" parent="1" target="PSOIu7-MygtbMvIVnS7S-1902">
          <mxGeometry relative="1" as="geometry">
            <mxPoint x="239" y="4102" as="sourcePoint" />
            <mxPoint x="277" y="4478" as="targetPoint" />
            <Array as="points">
              <mxPoint x="240" y="4478" />
            </Array>
          </mxGeometry>
        </mxCell>
        <mxCell id="PSOIu7-MygtbMvIVnS7S-1909" value="" style="edgeStyle=none;rounded=0;jumpStyle=none;html=1;shadow=0;labelBackgroundColor=none;startArrow=none;startFill=0;endArrow=classic;endFill=1;jettySize=auto;orthogonalLoop=1;strokeColor=#2F5B7C;strokeWidth=3;fontFamily=Helvetica;fontSize=16;fontColor=#23445D;spacing=5;exitX=0.25;exitY=1;exitDx=0;exitDy=0;entryX=0.5;entryY=0;entryDx=0;entryDy=0;" edge="1" parent="1" source="PSOIu7-MygtbMvIVnS7S-1894" target="PSOIu7-MygtbMvIVnS7S-1896">
          <mxGeometry relative="1" as="geometry">
            <mxPoint x="420" y="2766" as="sourcePoint" />
            <mxPoint x="220" y="2828" as="targetPoint" />
          </mxGeometry>
        </mxCell>
        <mxCell id="PSOIu7-MygtbMvIVnS7S-1910" value="" style="edgeStyle=none;rounded=0;jumpStyle=none;html=1;shadow=0;labelBackgroundColor=none;startArrow=none;startFill=0;endArrow=classic;endFill=1;jettySize=auto;orthogonalLoop=1;strokeColor=#2F5B7C;strokeWidth=3;fontFamily=Helvetica;fontSize=16;fontColor=#23445D;spacing=5;exitX=0.75;exitY=1;exitDx=0;exitDy=0;entryX=0.5;entryY=0;entryDx=0;entryDy=0;" edge="1" parent="1" source="PSOIu7-MygtbMvIVnS7S-1894" target="PSOIu7-MygtbMvIVnS7S-1895">
          <mxGeometry relative="1" as="geometry">
            <mxPoint x="369" y="3934" as="sourcePoint" />
            <mxPoint x="210" y="4050" as="targetPoint" />
          </mxGeometry>
        </mxCell>
        <mxCell id="PSOIu7-MygtbMvIVnS7S-1911" value="&lt;font style=&quot;font-size: 36px;&quot;&gt;Departamento de Consultoría&lt;/font&gt;" style="text;whiteSpace=wrap;html=1;align=center;" vertex="1" parent="1">
          <mxGeometry x="30" y="4780" width="780" height="40" as="geometry" />
        </mxCell>
        <mxCell id="PSOIu7-MygtbMvIVnS7S-1912" value="Consultoría" style="rounded=1;whiteSpace=wrap;html=1;shadow=0;labelBackgroundColor=none;strokeColor=#005700;strokeWidth=3;fillColor=light-dark(#008a00, #8a7e00);fontFamily=Helvetica;fontSize=14;fontColor=#ffffff;align=center;spacing=5;fontStyle=1;arcSize=7;perimeterSpacing=2;" vertex="1" parent="1">
          <mxGeometry x="320" y="5060" width="160" height="60" as="geometry" />
        </mxCell>
        <mxCell id="PSOIu7-MygtbMvIVnS7S-1913" value="De Negocio" style="rounded=1;whiteSpace=wrap;html=1;shadow=0;labelBackgroundColor=none;strokeColor=#005700;strokeWidth=3;fillColor=light-dark(#008A00,#4F4800);fontFamily=Helvetica;fontSize=14;fontColor=#ffffff;align=center;spacing=5;fontStyle=1;arcSize=7;perimeterSpacing=2;" vertex="1" parent="1">
          <mxGeometry x="520" y="5220" width="160" height="60" as="geometry" />
        </mxCell>
        <mxCell id="PSOIu7-MygtbMvIVnS7S-1914" value="Técnica" style="rounded=1;whiteSpace=wrap;html=1;shadow=0;labelBackgroundColor=none;strokeColor=#005700;strokeWidth=3;fillColor=light-dark(#008A00,#4F4800);fontFamily=Helvetica;fontSize=14;fontColor=#ffffff;align=center;spacing=5;fontStyle=1;arcSize=7;perimeterSpacing=2;" vertex="1" parent="1">
          <mxGeometry x="120" y="5220" width="160" height="60" as="geometry" />
        </mxCell>
        <mxCell id="PSOIu7-MygtbMvIVnS7S-1915" value="" style="edgeStyle=none;rounded=0;jumpStyle=none;html=1;shadow=0;labelBackgroundColor=none;startArrow=none;startFill=0;endArrow=classic;endFill=1;jettySize=auto;orthogonalLoop=1;strokeColor=#2F5B7C;strokeWidth=3;fontFamily=Helvetica;fontSize=16;fontColor=#23445D;spacing=5;exitX=0.75;exitY=1;exitDx=0;exitDy=0;entryX=0.5;entryY=0;entryDx=0;entryDy=0;" edge="1" parent="1" source="PSOIu7-MygtbMvIVnS7S-1912" target="PSOIu7-MygtbMvIVnS7S-1913">
          <mxGeometry relative="1" as="geometry">
            <mxPoint x="451" y="5134" as="sourcePoint" />
            <mxPoint x="610" y="5250" as="targetPoint" />
          </mxGeometry>
        </mxCell>
        <mxCell id="PSOIu7-MygtbMvIVnS7S-1916" value="" style="edgeStyle=none;rounded=0;jumpStyle=none;html=1;shadow=0;labelBackgroundColor=none;startArrow=none;startFill=0;endArrow=classic;endFill=1;jettySize=auto;orthogonalLoop=1;strokeColor=#2F5B7C;strokeWidth=3;fontFamily=Helvetica;fontSize=16;fontColor=#23445D;spacing=5;exitX=0.25;exitY=1;exitDx=0;exitDy=0;entryX=0.5;entryY=0;entryDx=0;entryDy=0;" edge="1" parent="1" source="PSOIu7-MygtbMvIVnS7S-1912" target="PSOIu7-MygtbMvIVnS7S-1914">
          <mxGeometry relative="1" as="geometry">
            <mxPoint x="381" y="5132" as="sourcePoint" />
            <mxPoint x="540" y="5228" as="targetPoint" />
          </mxGeometry>
        </mxCell>
        <mxCell id="PSOIu7-MygtbMvIVnS7S-1917" value="Análisis de procesos" style="rounded=1;whiteSpace=wrap;html=1;shadow=0;labelBackgroundColor=none;strokeColor=#005700;strokeWidth=3;fillColor=light-dark(#008A00,#322E00);fontFamily=Helvetica;fontSize=14;fontColor=#ffffff;align=center;spacing=5;fontStyle=1;arcSize=7;perimeterSpacing=2;" vertex="1" parent="1">
          <mxGeometry x="600" y="5360" width="160" height="60" as="geometry" />
        </mxCell>
        <mxCell id="PSOIu7-MygtbMvIVnS7S-1918" value="Mejora operativa" style="rounded=1;whiteSpace=wrap;html=1;shadow=0;labelBackgroundColor=none;strokeColor=#005700;strokeWidth=3;fillColor=light-dark(#008A00,#322E00);fontFamily=Helvetica;fontSize=14;fontColor=#ffffff;align=center;spacing=5;fontStyle=1;arcSize=7;perimeterSpacing=2;" vertex="1" parent="1">
          <mxGeometry x="600" y="5480" width="160" height="60" as="geometry" />
        </mxCell>
        <mxCell id="PSOIu7-MygtbMvIVnS7S-1919" value="Transformación digital" style="rounded=1;whiteSpace=wrap;html=1;shadow=0;labelBackgroundColor=none;strokeColor=#005700;strokeWidth=3;fillColor=light-dark(#008A00,#322E00);fontFamily=Helvetica;fontSize=14;fontColor=#ffffff;align=center;spacing=5;fontStyle=1;arcSize=7;perimeterSpacing=2;" vertex="1" parent="1">
          <mxGeometry x="600" y="5600" width="160" height="60" as="geometry" />
        </mxCell>
        <mxCell id="PSOIu7-MygtbMvIVnS7S-1920" value="Implementación de soluciones" style="rounded=1;whiteSpace=wrap;html=1;shadow=0;labelBackgroundColor=none;strokeColor=#005700;strokeWidth=3;fillColor=light-dark(#008A00,#322E00);fontFamily=Helvetica;fontSize=14;fontColor=#ffffff;align=center;spacing=5;fontStyle=1;arcSize=7;perimeterSpacing=2;" vertex="1" parent="1">
          <mxGeometry x="40" y="5360" width="160" height="60" as="geometry" />
        </mxCell>
        <mxCell id="PSOIu7-MygtbMvIVnS7S-1921" value="Migraciones de sistemas" style="rounded=1;whiteSpace=wrap;html=1;shadow=0;labelBackgroundColor=none;strokeColor=#005700;strokeWidth=3;fillColor=light-dark(#008A00,#322E00);fontFamily=Helvetica;fontSize=14;fontColor=#ffffff;align=center;spacing=5;fontStyle=1;arcSize=7;perimeterSpacing=2;" vertex="1" parent="1">
          <mxGeometry x="40" y="5480" width="160" height="60" as="geometry" />
        </mxCell>
        <mxCell id="PSOIu7-MygtbMvIVnS7S-1922" value="Integraciones personalizadas" style="rounded=1;whiteSpace=wrap;html=1;shadow=0;labelBackgroundColor=none;strokeColor=#005700;strokeWidth=3;fillColor=light-dark(#008A00,#322E00);fontFamily=Helvetica;fontSize=14;fontColor=#ffffff;align=center;spacing=5;fontStyle=1;arcSize=7;perimeterSpacing=2;" vertex="1" parent="1">
          <mxGeometry x="40" y="5600" width="160" height="60" as="geometry" />
        </mxCell>
        <mxCell id="PSOIu7-MygtbMvIVnS7S-1923" value="" style="edgeStyle=none;rounded=0;jumpStyle=none;html=1;shadow=0;labelBackgroundColor=none;startArrow=none;startFill=0;endArrow=classic;endFill=1;jettySize=auto;orthogonalLoop=1;strokeColor=#2F5B7C;strokeWidth=3;fontFamily=Helvetica;fontSize=16;fontColor=#23445D;spacing=5;entryX=0.009;entryY=0.621;entryDx=0;entryDy=0;exitX=0.25;exitY=1;exitDx=0;exitDy=0;entryPerimeter=0;" edge="1" parent="1">
          <mxGeometry relative="1" as="geometry">
            <mxPoint x="559" y="5284" as="sourcePoint" />
            <mxPoint x="599" y="5380" as="targetPoint" />
            <Array as="points">
              <mxPoint x="560" y="5380" />
            </Array>
          </mxGeometry>
        </mxCell>
        <mxCell id="PSOIu7-MygtbMvIVnS7S-1924" value="" style="edgeStyle=none;rounded=0;jumpStyle=none;html=1;shadow=0;labelBackgroundColor=none;startArrow=none;startFill=0;endArrow=classic;endFill=1;jettySize=auto;orthogonalLoop=1;strokeColor=#2F5B7C;strokeWidth=3;fontFamily=Helvetica;fontSize=16;fontColor=#23445D;spacing=5;entryX=0.009;entryY=0.6;entryDx=0;entryDy=0;exitX=0.25;exitY=1;exitDx=0;exitDy=0;entryPerimeter=0;" edge="1" parent="1">
          <mxGeometry relative="1" as="geometry">
            <mxPoint x="559" y="5284" as="sourcePoint" />
            <mxPoint x="599" y="5518" as="targetPoint" />
            <Array as="points">
              <mxPoint x="559" y="5520" />
            </Array>
          </mxGeometry>
        </mxCell>
        <mxCell id="PSOIu7-MygtbMvIVnS7S-1925" value="" style="edgeStyle=none;rounded=0;jumpStyle=none;html=1;shadow=0;labelBackgroundColor=none;startArrow=none;startFill=0;endArrow=classic;endFill=1;jettySize=auto;orthogonalLoop=1;strokeColor=#2F5B7C;strokeWidth=3;fontFamily=Helvetica;fontSize=16;fontColor=#23445D;spacing=5;entryX=0.017;entryY=0.655;entryDx=0;entryDy=0;exitX=0.25;exitY=1;exitDx=0;exitDy=0;entryPerimeter=0;" edge="1" parent="1" target="PSOIu7-MygtbMvIVnS7S-1919">
          <mxGeometry relative="1" as="geometry">
            <mxPoint x="559" y="5284" as="sourcePoint" />
            <mxPoint x="597" y="5660" as="targetPoint" />
            <Array as="points">
              <mxPoint x="560" y="5640" />
            </Array>
          </mxGeometry>
        </mxCell>
        <mxCell id="PSOIu7-MygtbMvIVnS7S-1926" value="" style="edgeStyle=none;rounded=0;jumpStyle=none;html=1;shadow=0;labelBackgroundColor=none;startArrow=none;startFill=0;endArrow=classic;endFill=1;jettySize=auto;orthogonalLoop=1;strokeColor=#2F5B7C;strokeWidth=3;fontFamily=Helvetica;fontSize=16;fontColor=#23445D;spacing=5;exitX=0.25;exitY=1;exitDx=0;exitDy=0;" edge="1" parent="1">
          <mxGeometry relative="1" as="geometry">
            <mxPoint x="239" y="5284" as="sourcePoint" />
            <mxPoint x="200" y="5380" as="targetPoint" />
            <Array as="points">
              <mxPoint x="240" y="5380" />
            </Array>
          </mxGeometry>
        </mxCell>
        <mxCell id="PSOIu7-MygtbMvIVnS7S-1927" value="" style="edgeStyle=none;rounded=0;jumpStyle=none;html=1;shadow=0;labelBackgroundColor=none;startArrow=none;startFill=0;endArrow=classic;endFill=1;jettySize=auto;orthogonalLoop=1;strokeColor=#2F5B7C;strokeWidth=3;fontFamily=Helvetica;fontSize=16;fontColor=#23445D;spacing=5;exitX=0.25;exitY=1;exitDx=0;exitDy=0;entryX=0.977;entryY=0.667;entryDx=0;entryDy=0;entryPerimeter=0;" edge="1" parent="1" target="PSOIu7-MygtbMvIVnS7S-1921">
          <mxGeometry relative="1" as="geometry">
            <mxPoint x="239" y="5284" as="sourcePoint" />
            <mxPoint x="203" y="5518" as="targetPoint" />
            <Array as="points">
              <mxPoint x="239" y="5520" />
            </Array>
          </mxGeometry>
        </mxCell>
        <mxCell id="PSOIu7-MygtbMvIVnS7S-1928" value="" style="edgeStyle=none;rounded=0;jumpStyle=none;html=1;shadow=0;labelBackgroundColor=none;startArrow=none;startFill=0;endArrow=classic;endFill=1;jettySize=auto;orthogonalLoop=1;strokeColor=#2F5B7C;strokeWidth=3;fontFamily=Helvetica;fontSize=16;fontColor=#23445D;spacing=5;entryX=0.973;entryY=0.666;entryDx=0;entryDy=0;exitX=0.25;exitY=1;exitDx=0;exitDy=0;entryPerimeter=0;" edge="1" parent="1" target="PSOIu7-MygtbMvIVnS7S-1922">
          <mxGeometry relative="1" as="geometry">
            <mxPoint x="239" y="5284" as="sourcePoint" />
            <mxPoint x="277" y="5660" as="targetPoint" />
            <Array as="points">
              <mxPoint x="240" y="5640" />
            </Array>
          </mxGeometry>
        </mxCell>
        <mxCell id="PSOIu7-MygtbMvIVnS7S-1929" value="&lt;font style=&quot;font-size: 36px;&quot;&gt;Departamento de Atención al Cliente&lt;/font&gt;" style="text;whiteSpace=wrap;html=1;align=center;" vertex="1" parent="1">
          <mxGeometry x="40" y="5950" width="740" height="40" as="geometry" />
        </mxCell>
        <mxCell id="PSOIu7-MygtbMvIVnS7S-1930" value="Atención al Cliente" style="rounded=1;whiteSpace=wrap;html=1;shadow=0;labelBackgroundColor=none;strokeColor=#001DBC;strokeWidth=3;fillColor=light-dark(#0050ef, #2800f0);fontFamily=Helvetica;fontSize=14;fontColor=#ffffff;align=center;spacing=5;fontStyle=1;arcSize=7;perimeterSpacing=2;" vertex="1" parent="1">
          <mxGeometry x="327" y="6190" width="160" height="60" as="geometry" />
        </mxCell>
        <mxCell id="PSOIu7-MygtbMvIVnS7S-1931" value="Experiencia del Cliente" style="rounded=1;whiteSpace=wrap;html=1;shadow=0;labelBackgroundColor=none;strokeColor=#001DBC;strokeWidth=3;fillColor=light-dark(#0050EF,#1C008A);fontFamily=Helvetica;fontSize=14;fontColor=#ffffff;align=center;spacing=5;fontStyle=1;arcSize=7;perimeterSpacing=2;" vertex="1" parent="1">
          <mxGeometry x="537" y="6330" width="160" height="60" as="geometry" />
        </mxCell>
        <mxCell id="PSOIu7-MygtbMvIVnS7S-1933" value="Soporte Técnico" style="rounded=1;whiteSpace=wrap;html=1;shadow=0;labelBackgroundColor=none;strokeColor=#001DBC;strokeWidth=3;fillColor=light-dark(#0050EF,#1C008A);fontFamily=Helvetica;fontSize=14;fontColor=#ffffff;align=center;spacing=5;fontStyle=1;arcSize=7;perimeterSpacing=2;" vertex="1" parent="1">
          <mxGeometry x="114" y="6330" width="160" height="60" as="geometry" />
        </mxCell>
        <mxCell id="PSOIu7-MygtbMvIVnS7S-1934" value="" style="edgeStyle=none;rounded=0;jumpStyle=none;html=1;shadow=0;labelBackgroundColor=none;startArrow=none;startFill=0;endArrow=classic;endFill=1;jettySize=auto;orthogonalLoop=1;strokeColor=#2F5B7C;strokeWidth=3;fontFamily=Helvetica;fontSize=16;fontColor=#23445D;spacing=5;exitX=0.5;exitY=1;exitDx=0;exitDy=0;entryX=0.5;entryY=0;entryDx=0;entryDy=0;" edge="1" parent="1" source="PSOIu7-MygtbMvIVnS7S-1930" target="PSOIu7-MygtbMvIVnS7S-1933">
          <mxGeometry relative="1" as="geometry">
            <mxPoint x="386" y="5924" as="sourcePoint" />
            <mxPoint x="227" y="6020" as="targetPoint" />
          </mxGeometry>
        </mxCell>
        <mxCell id="PSOIu7-MygtbMvIVnS7S-1935" value="" style="edgeStyle=none;rounded=0;jumpStyle=none;html=1;shadow=0;labelBackgroundColor=none;startArrow=none;startFill=0;endArrow=classic;endFill=1;jettySize=auto;orthogonalLoop=1;strokeColor=#2F5B7C;strokeWidth=3;fontFamily=Helvetica;fontSize=16;fontColor=#23445D;spacing=5;entryX=0.5;entryY=0;entryDx=0;entryDy=0;exitX=0.5;exitY=1;exitDx=0;exitDy=0;" edge="1" parent="1" source="PSOIu7-MygtbMvIVnS7S-1930" target="PSOIu7-MygtbMvIVnS7S-1931">
          <mxGeometry relative="1" as="geometry">
            <mxPoint x="417" y="6290" as="sourcePoint" />
            <mxPoint x="204" y="6338" as="targetPoint" />
          </mxGeometry>
        </mxCell>
        <mxCell id="PSOIu7-MygtbMvIVnS7S-1936" value="Encuestas de satisfacción" style="rounded=1;whiteSpace=wrap;html=1;shadow=0;labelBackgroundColor=none;strokeColor=#001DBC;strokeWidth=3;fillColor=light-dark(#0050EF,#10004B);fontFamily=Helvetica;fontSize=14;fontColor=#ffffff;align=center;spacing=5;fontStyle=1;arcSize=7;perimeterSpacing=2;" vertex="1" parent="1">
          <mxGeometry x="620" y="6460" width="160" height="60" as="geometry" />
        </mxCell>
        <mxCell id="PSOIu7-MygtbMvIVnS7S-1937" value="Fidelización" style="rounded=1;whiteSpace=wrap;html=1;shadow=0;labelBackgroundColor=none;strokeColor=#001DBC;strokeWidth=3;fillColor=light-dark(#0050EF,#10004B);fontFamily=Helvetica;fontSize=14;fontColor=#ffffff;align=center;spacing=5;fontStyle=1;arcSize=7;perimeterSpacing=2;" vertex="1" parent="1">
          <mxGeometry x="620" y="6600" width="160" height="60" as="geometry" />
        </mxCell>
        <mxCell id="PSOIu7-MygtbMvIVnS7S-1938" value="Gestión de reclamaciones" style="rounded=1;whiteSpace=wrap;html=1;shadow=0;labelBackgroundColor=none;strokeColor=#001DBC;strokeWidth=3;fillColor=light-dark(#0050EF,#10004B);fontFamily=Helvetica;fontSize=14;fontColor=#ffffff;align=center;spacing=5;fontStyle=1;arcSize=7;perimeterSpacing=2;" vertex="1" parent="1">
          <mxGeometry x="620" y="6720" width="160" height="60" as="geometry" />
        </mxCell>
        <mxCell id="PSOIu7-MygtbMvIVnS7S-1939" value="Gestión de tickets" style="rounded=1;whiteSpace=wrap;html=1;shadow=0;labelBackgroundColor=none;strokeColor=#001DBC;strokeWidth=3;fillColor=light-dark(#0050EF,#10004B);fontFamily=Helvetica;fontSize=14;fontColor=#ffffff;align=center;spacing=5;fontStyle=1;arcSize=7;perimeterSpacing=2;" vertex="1" parent="1">
          <mxGeometry x="30" y="6450" width="160" height="60" as="geometry" />
        </mxCell>
        <mxCell id="PSOIu7-MygtbMvIVnS7S-1940" value="Asistencia remota" style="rounded=1;whiteSpace=wrap;html=1;shadow=0;labelBackgroundColor=none;strokeColor=#001DBC;strokeWidth=3;fillColor=light-dark(#0050EF,#10004B);fontFamily=Helvetica;fontSize=14;fontColor=#ffffff;align=center;spacing=5;fontStyle=1;arcSize=7;perimeterSpacing=2;" vertex="1" parent="1">
          <mxGeometry x="30" y="6570" width="160" height="60" as="geometry" />
        </mxCell>
        <mxCell id="PSOIu7-MygtbMvIVnS7S-1941" value="Manuales y documentación" style="rounded=1;whiteSpace=wrap;html=1;shadow=0;labelBackgroundColor=none;strokeColor=#001DBC;strokeWidth=3;fillColor=light-dark(#0050EF,#10004B);fontFamily=Helvetica;fontSize=14;fontColor=#ffffff;align=center;spacing=5;fontStyle=1;arcSize=7;perimeterSpacing=2;" vertex="1" parent="1">
          <mxGeometry x="30" y="6690" width="160" height="60" as="geometry" />
        </mxCell>
        <mxCell id="PSOIu7-MygtbMvIVnS7S-1942" value="" style="edgeStyle=none;rounded=0;jumpStyle=none;html=1;shadow=0;labelBackgroundColor=none;startArrow=none;startFill=0;endArrow=classic;endFill=1;jettySize=auto;orthogonalLoop=1;strokeColor=#2F5B7C;strokeWidth=3;fontFamily=Helvetica;fontSize=16;fontColor=#23445D;spacing=5;entryX=0.009;entryY=0.621;entryDx=0;entryDy=0;exitX=0.25;exitY=1;exitDx=0;exitDy=0;entryPerimeter=0;" edge="1" parent="1">
          <mxGeometry relative="1" as="geometry">
            <mxPoint x="579" y="6394" as="sourcePoint" />
            <mxPoint x="619" y="6490" as="targetPoint" />
            <Array as="points">
              <mxPoint x="580" y="6490" />
            </Array>
          </mxGeometry>
        </mxCell>
        <mxCell id="PSOIu7-MygtbMvIVnS7S-1943" value="" style="edgeStyle=none;rounded=0;jumpStyle=none;html=1;shadow=0;labelBackgroundColor=none;startArrow=none;startFill=0;endArrow=classic;endFill=1;jettySize=auto;orthogonalLoop=1;strokeColor=#2F5B7C;strokeWidth=3;fontFamily=Helvetica;fontSize=16;fontColor=#23445D;spacing=5;entryX=0.009;entryY=0.6;entryDx=0;entryDy=0;exitX=0.25;exitY=1;exitDx=0;exitDy=0;entryPerimeter=0;" edge="1" parent="1">
          <mxGeometry relative="1" as="geometry">
            <mxPoint x="579" y="6394" as="sourcePoint" />
            <mxPoint x="619" y="6628" as="targetPoint" />
            <Array as="points">
              <mxPoint x="579" y="6630" />
            </Array>
          </mxGeometry>
        </mxCell>
        <mxCell id="PSOIu7-MygtbMvIVnS7S-1944" value="" style="edgeStyle=none;rounded=0;jumpStyle=none;html=1;shadow=0;labelBackgroundColor=none;startArrow=none;startFill=0;endArrow=classic;endFill=1;jettySize=auto;orthogonalLoop=1;strokeColor=#2F5B7C;strokeWidth=3;fontFamily=Helvetica;fontSize=16;fontColor=#23445D;spacing=5;entryX=0.017;entryY=0.655;entryDx=0;entryDy=0;exitX=0.25;exitY=1;exitDx=0;exitDy=0;entryPerimeter=0;" edge="1" parent="1">
          <mxGeometry relative="1" as="geometry">
            <mxPoint x="579" y="6394" as="sourcePoint" />
            <mxPoint x="621" y="6750" as="targetPoint" />
            <Array as="points">
              <mxPoint x="580" y="6750" />
            </Array>
          </mxGeometry>
        </mxCell>
        <mxCell id="PSOIu7-MygtbMvIVnS7S-1945" value="" style="edgeStyle=none;rounded=0;jumpStyle=none;html=1;shadow=0;labelBackgroundColor=none;startArrow=none;startFill=0;endArrow=classic;endFill=1;jettySize=auto;orthogonalLoop=1;strokeColor=#2F5B7C;strokeWidth=3;fontFamily=Helvetica;fontSize=16;fontColor=#23445D;spacing=5;entryX=0.993;entryY=0.618;entryDx=0;entryDy=0;exitX=0.25;exitY=1;exitDx=0;exitDy=0;entryPerimeter=0;" edge="1" parent="1" target="PSOIu7-MygtbMvIVnS7S-1939">
          <mxGeometry relative="1" as="geometry">
            <mxPoint x="239" y="6394" as="sourcePoint" />
            <mxPoint x="279" y="6490" as="targetPoint" />
            <Array as="points">
              <mxPoint x="240" y="6490" />
            </Array>
          </mxGeometry>
        </mxCell>
        <mxCell id="PSOIu7-MygtbMvIVnS7S-1946" value="" style="edgeStyle=none;rounded=0;jumpStyle=none;html=1;shadow=0;labelBackgroundColor=none;startArrow=none;startFill=0;endArrow=classic;endFill=1;jettySize=auto;orthogonalLoop=1;strokeColor=#2F5B7C;strokeWidth=3;fontFamily=Helvetica;fontSize=16;fontColor=#23445D;spacing=5;entryX=0.993;entryY=0.64;entryDx=0;entryDy=0;exitX=0.25;exitY=1;exitDx=0;exitDy=0;entryPerimeter=0;" edge="1" parent="1" target="PSOIu7-MygtbMvIVnS7S-1940">
          <mxGeometry relative="1" as="geometry">
            <mxPoint x="239" y="6394" as="sourcePoint" />
            <mxPoint x="279" y="6628" as="targetPoint" />
            <Array as="points">
              <mxPoint x="239" y="6610" />
            </Array>
          </mxGeometry>
        </mxCell>
        <mxCell id="PSOIu7-MygtbMvIVnS7S-1947" value="" style="edgeStyle=none;rounded=0;jumpStyle=none;html=1;shadow=0;labelBackgroundColor=none;startArrow=none;startFill=0;endArrow=classic;endFill=1;jettySize=auto;orthogonalLoop=1;strokeColor=#2F5B7C;strokeWidth=3;fontFamily=Helvetica;fontSize=16;fontColor=#23445D;spacing=5;entryX=1;entryY=0.5;entryDx=0;entryDy=0;exitX=0.25;exitY=1;exitDx=0;exitDy=0;" edge="1" parent="1" target="PSOIu7-MygtbMvIVnS7S-1941">
          <mxGeometry relative="1" as="geometry">
            <mxPoint x="239" y="6394" as="sourcePoint" />
            <mxPoint x="281" y="6750" as="targetPoint" />
            <Array as="points">
              <mxPoint x="240" y="6720" />
            </Array>
          </mxGeometry>
        </mxCell>
        <mxCell id="PSOIu7-MygtbMvIVnS7S-1948" value="&lt;font style=&quot;font-size: 36px;&quot;&gt;Departamento Comercial&lt;/font&gt;" style="text;whiteSpace=wrap;html=1;align=center;" vertex="1" parent="1">
          <mxGeometry x="50" y="7150" width="730" height="40" as="geometry" />
        </mxCell>
        <mxCell id="PSOIu7-MygtbMvIVnS7S-1949" value="Comercial" style="rounded=1;whiteSpace=wrap;html=1;shadow=0;labelBackgroundColor=none;strokeColor=#001DBC;strokeWidth=3;fillColor=light-dark(#0050ef, #2800f0);fontFamily=Helvetica;fontSize=14;fontColor=#ffffff;align=center;spacing=5;fontStyle=1;arcSize=7;perimeterSpacing=2;" vertex="1" parent="1">
          <mxGeometry x="320" y="7337" width="160" height="60" as="geometry" />
        </mxCell>
        <mxCell id="PSOIu7-MygtbMvIVnS7S-1950" value="Desarrollo de mercados" style="rounded=1;whiteSpace=wrap;html=1;shadow=0;labelBackgroundColor=none;strokeColor=#001DBC;strokeWidth=3;fillColor=light-dark(#0050EF,#1E009C);fontFamily=Helvetica;fontSize=14;fontColor=#ffffff;align=center;spacing=5;fontStyle=1;arcSize=7;perimeterSpacing=2;" vertex="1" parent="1">
          <mxGeometry x="530" y="7686" width="160" height="60" as="geometry" />
        </mxCell>
        <mxCell id="PSOIu7-MygtbMvIVnS7S-1951" value="Internacionalización" style="rounded=1;whiteSpace=wrap;html=1;shadow=0;labelBackgroundColor=none;strokeColor=#001DBC;strokeWidth=3;fillColor=light-dark(#0050EF,#1E009C);fontFamily=Helvetica;fontSize=14;fontColor=#ffffff;align=center;spacing=5;fontStyle=1;arcSize=7;perimeterSpacing=2;" vertex="1" parent="1">
          <mxGeometry x="530" y="7816" width="160" height="60" as="geometry" />
        </mxCell>
        <mxCell id="PSOIu7-MygtbMvIVnS7S-1952" value="Alianzas estratégicas" style="rounded=1;whiteSpace=wrap;html=1;shadow=0;labelBackgroundColor=none;strokeColor=#001DBC;strokeWidth=3;fillColor=light-dark(#0050EF,#1E009C);fontFamily=Helvetica;fontSize=14;fontColor=#ffffff;align=center;spacing=5;fontStyle=1;arcSize=7;perimeterSpacing=2;" vertex="1" parent="1">
          <mxGeometry x="530" y="7946" width="160" height="60" as="geometry" />
        </mxCell>
        <mxCell id="PSOIu7-MygtbMvIVnS7S-1953" value="Prospección" style="rounded=1;whiteSpace=wrap;html=1;shadow=0;labelBackgroundColor=none;strokeColor=#001DBC;strokeWidth=3;fillColor=light-dark(#0050EF,#1E009C);fontFamily=Helvetica;fontSize=14;fontColor=#ffffff;align=center;spacing=5;fontStyle=1;arcSize=7;perimeterSpacing=2;" vertex="1" parent="1">
          <mxGeometry x="100" y="7686" width="160" height="60" as="geometry" />
        </mxCell>
        <mxCell id="PSOIu7-MygtbMvIVnS7S-1954" value="Presentaciones comerciales" style="rounded=1;whiteSpace=wrap;html=1;shadow=0;labelBackgroundColor=none;strokeColor=#001DBC;strokeWidth=3;fillColor=light-dark(#0050EF,#1E009C);fontFamily=Helvetica;fontSize=14;fontColor=#ffffff;align=center;spacing=5;fontStyle=1;arcSize=7;perimeterSpacing=2;" vertex="1" parent="1">
          <mxGeometry x="100" y="7816" width="160" height="60" as="geometry" />
        </mxCell>
        <mxCell id="PSOIu7-MygtbMvIVnS7S-1955" value="Cierre de contratos" style="rounded=1;whiteSpace=wrap;html=1;shadow=0;labelBackgroundColor=none;strokeColor=#001DBC;strokeWidth=3;fillColor=light-dark(#0050EF,#1E009C);fontFamily=Helvetica;fontSize=14;fontColor=#ffffff;align=center;spacing=5;fontStyle=1;arcSize=7;perimeterSpacing=2;" vertex="1" parent="1">
          <mxGeometry x="100" y="7946" width="160" height="60" as="geometry" />
        </mxCell>
        <mxCell id="PSOIu7-MygtbMvIVnS7S-1956" value="Expansión" style="rounded=1;whiteSpace=wrap;html=1;shadow=0;labelBackgroundColor=none;strokeColor=#001DBC;strokeWidth=3;fillColor=light-dark(#0050EF,#2300AC);fontFamily=Helvetica;fontSize=14;fontColor=#ffffff;align=center;spacing=5;fontStyle=1;arcSize=7;perimeterSpacing=2;" vertex="1" parent="1">
          <mxGeometry x="440" y="7497" width="160" height="60" as="geometry" />
        </mxCell>
        <mxCell id="PSOIu7-MygtbMvIVnS7S-1957" value="Ventas" style="rounded=1;whiteSpace=wrap;html=1;shadow=0;labelBackgroundColor=none;strokeColor=#001DBC;strokeWidth=3;fillColor=light-dark(#0050EF,#2300AC);fontFamily=Helvetica;fontSize=14;fontColor=#ffffff;align=center;spacing=5;fontStyle=1;arcSize=7;perimeterSpacing=2;" vertex="1" parent="1">
          <mxGeometry x="190" y="7497" width="160" height="60" as="geometry" />
        </mxCell>
        <mxCell id="PSOIu7-MygtbMvIVnS7S-1958" value="" style="edgeStyle=none;rounded=0;jumpStyle=none;html=1;shadow=0;labelBackgroundColor=none;startArrow=none;startFill=0;endArrow=classic;endFill=1;jettySize=auto;orthogonalLoop=1;strokeColor=#2F5B7C;strokeWidth=3;fontFamily=Helvetica;fontSize=16;fontColor=#23445D;spacing=5;exitX=0.5;exitY=1;exitDx=0;exitDy=0;entryX=0.5;entryY=0;entryDx=0;entryDy=0;" edge="1" parent="1" source="PSOIu7-MygtbMvIVnS7S-1949" target="PSOIu7-MygtbMvIVnS7S-1957">
          <mxGeometry relative="1" as="geometry">
            <mxPoint x="417" y="7333" as="sourcePoint" />
            <mxPoint x="204" y="7409" as="targetPoint" />
          </mxGeometry>
        </mxCell>
        <mxCell id="PSOIu7-MygtbMvIVnS7S-1959" value="" style="edgeStyle=none;rounded=0;jumpStyle=none;html=1;shadow=0;labelBackgroundColor=none;startArrow=none;startFill=0;endArrow=classic;endFill=1;jettySize=auto;orthogonalLoop=1;strokeColor=#2F5B7C;strokeWidth=3;fontFamily=Helvetica;fontSize=16;fontColor=#23445D;spacing=5;exitX=0.5;exitY=1;exitDx=0;exitDy=0;entryX=0.5;entryY=0;entryDx=0;entryDy=0;" edge="1" parent="1" source="PSOIu7-MygtbMvIVnS7S-1949" target="PSOIu7-MygtbMvIVnS7S-1956">
          <mxGeometry relative="1" as="geometry">
            <mxPoint x="410" y="7409" as="sourcePoint" />
            <mxPoint x="280" y="7505" as="targetPoint" />
          </mxGeometry>
        </mxCell>
        <mxCell id="PSOIu7-MygtbMvIVnS7S-1960" value="" style="edgeStyle=none;rounded=0;jumpStyle=none;html=1;shadow=0;labelBackgroundColor=none;startArrow=none;startFill=0;endArrow=classic;endFill=1;jettySize=auto;orthogonalLoop=1;strokeColor=#2F5B7C;strokeWidth=3;fontFamily=Helvetica;fontSize=16;fontColor=#23445D;spacing=5;entryX=0.009;entryY=0.621;entryDx=0;entryDy=0;exitX=0.325;exitY=0.979;exitDx=0;exitDy=0;entryPerimeter=0;exitPerimeter=0;" edge="1" parent="1" source="PSOIu7-MygtbMvIVnS7S-1956">
          <mxGeometry relative="1" as="geometry">
            <mxPoint x="490" y="7615" as="sourcePoint" />
            <mxPoint x="530" y="7711" as="targetPoint" />
            <Array as="points">
              <mxPoint x="491" y="7711" />
            </Array>
          </mxGeometry>
        </mxCell>
        <mxCell id="PSOIu7-MygtbMvIVnS7S-1961" value="" style="edgeStyle=none;rounded=0;jumpStyle=none;html=1;shadow=0;labelBackgroundColor=none;startArrow=none;startFill=0;endArrow=classic;endFill=1;jettySize=auto;orthogonalLoop=1;strokeColor=#2F5B7C;strokeWidth=3;fontFamily=Helvetica;fontSize=16;fontColor=#23445D;spacing=5;entryX=0.009;entryY=0.6;entryDx=0;entryDy=0;exitX=0.325;exitY=0.951;exitDx=0;exitDy=0;entryPerimeter=0;exitPerimeter=0;" edge="1" parent="1" source="PSOIu7-MygtbMvIVnS7S-1956">
          <mxGeometry relative="1" as="geometry">
            <mxPoint x="490" y="7615" as="sourcePoint" />
            <mxPoint x="530" y="7849" as="targetPoint" />
            <Array as="points">
              <mxPoint x="490" y="7851" />
            </Array>
          </mxGeometry>
        </mxCell>
        <mxCell id="PSOIu7-MygtbMvIVnS7S-1962" value="" style="edgeStyle=none;rounded=0;jumpStyle=none;html=1;shadow=0;labelBackgroundColor=none;startArrow=none;startFill=0;endArrow=classic;endFill=1;jettySize=auto;orthogonalLoop=1;strokeColor=#2F5B7C;strokeWidth=3;fontFamily=Helvetica;fontSize=16;fontColor=#23445D;spacing=5;entryX=0.017;entryY=0.655;entryDx=0;entryDy=0;exitX=0.325;exitY=0.924;exitDx=0;exitDy=0;entryPerimeter=0;exitPerimeter=0;" edge="1" parent="1" source="PSOIu7-MygtbMvIVnS7S-1956">
          <mxGeometry relative="1" as="geometry">
            <mxPoint x="490" y="7615" as="sourcePoint" />
            <mxPoint x="532" y="7971" as="targetPoint" />
            <Array as="points">
              <mxPoint x="491" y="7971" />
            </Array>
          </mxGeometry>
        </mxCell>
        <mxCell id="PSOIu7-MygtbMvIVnS7S-1963" value="" style="edgeStyle=none;rounded=0;jumpStyle=none;html=1;shadow=0;labelBackgroundColor=none;startArrow=none;startFill=0;endArrow=classic;endFill=1;jettySize=auto;orthogonalLoop=1;strokeColor=#2F5B7C;strokeWidth=3;fontFamily=Helvetica;fontSize=16;fontColor=#23445D;spacing=5;entryX=0.989;entryY=0.446;entryDx=0;entryDy=0;exitX=0.325;exitY=0.979;exitDx=0;exitDy=0;exitPerimeter=0;entryPerimeter=0;" edge="1" parent="1" target="PSOIu7-MygtbMvIVnS7S-1953">
          <mxGeometry relative="1" as="geometry">
            <mxPoint x="301" y="7560" as="sourcePoint" />
            <mxPoint x="340" y="7713" as="targetPoint" />
            <Array as="points">
              <mxPoint x="301" y="7713" />
            </Array>
          </mxGeometry>
        </mxCell>
        <mxCell id="PSOIu7-MygtbMvIVnS7S-1964" value="" style="edgeStyle=none;rounded=0;jumpStyle=none;html=1;shadow=0;labelBackgroundColor=none;startArrow=none;startFill=0;endArrow=classic;endFill=1;jettySize=auto;orthogonalLoop=1;strokeColor=#2F5B7C;strokeWidth=3;fontFamily=Helvetica;fontSize=16;fontColor=#23445D;spacing=5;entryX=1.002;entryY=0.604;entryDx=0;entryDy=0;exitX=0.325;exitY=0.951;exitDx=0;exitDy=0;entryPerimeter=0;exitPerimeter=0;" edge="1" parent="1" target="PSOIu7-MygtbMvIVnS7S-1954">
          <mxGeometry relative="1" as="geometry">
            <mxPoint x="301" y="7558" as="sourcePoint" />
            <mxPoint x="340" y="7851" as="targetPoint" />
            <Array as="points">
              <mxPoint x="300" y="7853" />
            </Array>
          </mxGeometry>
        </mxCell>
        <mxCell id="PSOIu7-MygtbMvIVnS7S-1965" value="" style="edgeStyle=none;rounded=0;jumpStyle=none;html=1;shadow=0;labelBackgroundColor=none;startArrow=none;startFill=0;endArrow=classic;endFill=1;jettySize=auto;orthogonalLoop=1;strokeColor=#2F5B7C;strokeWidth=3;fontFamily=Helvetica;fontSize=16;fontColor=#23445D;spacing=5;entryX=0.988;entryY=0.453;entryDx=0;entryDy=0;exitX=0.325;exitY=0.924;exitDx=0;exitDy=0;entryPerimeter=0;exitPerimeter=0;" edge="1" parent="1" target="PSOIu7-MygtbMvIVnS7S-1955">
          <mxGeometry relative="1" as="geometry">
            <mxPoint x="301" y="7556" as="sourcePoint" />
            <mxPoint x="342" y="7973" as="targetPoint" />
            <Array as="points">
              <mxPoint x="301" y="7973" />
            </Array>
          </mxGeometry>
        </mxCell>
      </root>
    </mxGraphModel>
  </diagram>
</mxfile>
